<?xml version="1.0" encoding="UTF-8"?>
<svg version="1.1" xmlns="http://www.w3.org/2000/svg" width="700" height="700">
<path d="M0 0 C9.6060621 -0.04650391 19.21208496 -0.08196047 28.8182354 -0.10362434 C33.27958043 -0.11402608 37.74084798 -0.12811874 42.20214844 -0.15087891 C46.51396564 -0.1727368 50.82570869 -0.18459573 55.13757706 -0.18975449 C56.77606497 -0.19342714 58.41454919 -0.2005984 60.05300522 -0.21146011 C68.5907676 -0.265767 76.66813575 -0.09907839 85 2 C86.99361614 2.34784488 88.98942445 2.68365704 90.98828125 3 C92.53394775 3.24592896 92.53394775 3.24592896 94.11083984 3.49682617 C95.1673877 3.66287354 96.22393555 3.8289209 97.3125 4 C98.41029785 4.17442627 99.5080957 4.34885254 100.63916016 4.52856445 C107.33496163 5.58994872 114.03364386 6.62752029 120.7421875 7.60546875 C123.19741155 8.03449579 125.44945954 8.81291157 127.8046875 9.61328125 C138.67252903 13.39334431 138.67252903 13.39334431 149.76220703 16.39233398 C155.6878033 18.001412 161.37203728 20.63657342 167.0625 22.9375 C167.78186737 23.22768005 168.50123474 23.51786011 169.24240112 23.8168335 C180.25639958 28.2777603 190.80103975 33.22001619 201.17333984 39.03515625 C202.99433317 39.99700677 204.82867876 40.81315102 206.73046875 41.6015625 C209.52340728 42.7961527 211.77782462 44.01753064 214.25 45.75 C217.45675442 47.95598878 220.69372617 50.07110262 224 52.125 C241.29815017 63.126334 257.40653638 75.58340339 272.38671875 89.5703125 C274.65725606 91.68133523 276.96279436 93.72826474 279.3125 95.75 C284.95020966 100.65387555 290.07906803 105.94290367 294.9453125 111.609375 C296.4875053 113.40371339 298.04791375 115.18242209 299.6171875 116.953125 C337.67448926 160.15051649 361.72836032 212.25761393 374.49438477 268.06176758 C374.94476831 270.0620063 374.94476831 270.0620063 376 272 C376.71894461 276.35941868 377.18558651 280.75307394 377.67773438 285.14306641 C377.90719904 287.17730543 378.14362224 289.21076467 378.38476562 291.24365234 C387.15692209 366.12918239 374.19829708 444.8154948 335 510 C334.54544434 510.75941895 334.09088867 511.51883789 333.62255859 512.30126953 C322.9284712 530.02447234 310.7820951 546.56087834 297 562 C296.15179687 562.9590625 295.30359375 563.918125 294.4296875 564.90625 C290.72696859 569.0611161 286.9353573 573.0646427 283 577 C282.278125 577.928125 281.55625 578.85625 280.8125 579.8125 C280.214375 580.534375 279.61625 581.25625 279 582 C278.34 582 277.68 582 277 582 C277 582.66 277 583.32 277 584 C275.77734375 585.26953125 275.77734375 585.26953125 273.9375 586.8125 C271.16558913 589.16058618 268.40676656 591.51654919 265.69140625 593.9296875 C250.4568322 607.41886939 234.10930872 619.00500023 217 630 C216.29327148 630.45616699 215.58654297 630.91233398 214.85839844 631.38232422 C194.24298214 644.53109758 171.07473731 654.11842448 148 662 C146.61216309 662.47493896 146.61216309 662.47493896 145.19628906 662.95947266 C122.30839745 670.65170018 96.33108624 677.85372232 72 677 C71.67 677.66 71.34 678.32 71 679 C7.90060165 679.54744539 -52.86019415 672.68557055 -110 644 C-110.85754883 643.57332031 -111.71509766 643.14664063 -112.59863281 642.70703125 C-123.80240352 637.09435228 -134.53368539 630.88541145 -145 624 C-145.74749512 623.51160645 -146.49499023 623.02321289 -147.26513672 622.52001953 C-163.0308809 612.16527481 -177.46848604 600.57638996 -191.16796875 587.62109375 C-193.13249449 585.8028913 -195.08026697 584.08944272 -197.1484375 582.40234375 C-199.5180968 580.40598694 -201.46603716 578.49468851 -203.4375 576.125 C-205.65483053 573.51951533 -207.91104073 571.06041227 -210.375 568.6875 C-214.99653058 564.13834238 -218.95335684 559.0565384 -223 554 C-223.62519531 553.24203125 -224.25039062 552.4840625 -224.89453125 551.703125 C-233.91464081 540.68909648 -242.23893942 529.05198393 -249.8125 517 C-250.23901855 516.32372559 -250.66553711 515.64745117 -251.10498047 514.95068359 C-254 510.25674627 -254 510.25674627 -254 508 C-254.66 508 -255.32 508 -256 508 C-256.40863281 507.01902344 -256.81726563 506.03804687 -257.23828125 505.02734375 C-259.05559754 500.78693908 -261.1053702 496.67781261 -263.1875 492.5625 C-263.55552734 491.83095703 -263.92355469 491.09941406 -264.30273438 490.34570312 C-265.19997639 488.56287159 -266.09972593 486.78130237 -267 485 C-267.66 485.33 -268.32 485.66 -269 486 C-269.09539062 485.01644531 -269.19078125 484.03289062 -269.2890625 483.01953125 C-269.92647299 478.57890483 -271.54889673 474.75850295 -273.375 470.6875 C-273.83132813 469.61532227 -273.83132813 469.61532227 -274.296875 468.52148438 C-275.85786115 464.982582 -276.71629512 463.18913659 -280 461 C-280.2055584 458.97867575 -280.40130427 456.95593097 -280.55078125 454.9296875 C-281.49797 448.75236959 -283.90478652 442.86814404 -286 437 C-286.66 437 -287.32 437 -288 437 C-287.92652344 435.53626953 -287.92652344 435.53626953 -287.8515625 434.04296875 C-287.85382947 429.53964107 -289.04049268 425.5821737 -290.375 421.3125 C-290.59671875 420.56677734 -290.8184375 419.82105469 -291.046875 419.05273438 C-291.93876874 416.11210824 -292.7931042 413.39336559 -294.2265625 410.66796875 C-295 409 -295 409 -294 406 C-294.1978333 403.66673204 -294.1978333 403.66673204 -294.70703125 401.08984375 C-294.88065186 400.10951172 -295.05427246 399.12917969 -295.2331543 398.11914062 C-295.51993042 396.54422852 -295.51993042 396.54422852 -295.8125 394.9375 C-303.79907748 348.84608156 -302.23103491 302.41190308 -291.3671875 256.890625 C-290.0320384 251.29447994 -288.96565348 245.67058633 -288 240 C-287.34 240 -286.68 240 -286 240 C-285.90203125 239.42894531 -285.8040625 238.85789063 -285.703125 238.26953125 C-284.37156383 231.04925558 -282.64851886 223.85925001 -280 217 C-279.34 216.67 -278.68 216.34 -278 216 C-277.228091 213.99306861 -277.228091 213.99306861 -276.625 211.5625 C-275.33318806 206.9451004 -273.6803079 202.62063315 -271.76953125 198.2265625 C-270.78223005 195.76253632 -270.78223005 195.76253632 -271 192 C-270.01 192 -269.02 192 -268 192 C-267.7628125 191.18273437 -267.525625 190.36546875 -267.28125 189.5234375 C-265.74206138 185.29066879 -263.71140758 181.53836769 -261.5 177.625 C-261.05567627 176.83480469 -260.61135254 176.04460937 -260.15356445 175.23046875 C-246.451531 151.06036212 -230.20872018 128.59197969 -211.14453125 108.35546875 C-208.88994118 105.99739739 -208.88994118 105.99739739 -207 103 C-206.34 103 -205.68 103 -205 103 C-204.60929321 102.11574341 -204.60929321 102.11574341 -204.21069336 101.21362305 C-202.92243186 98.85817497 -201.58522387 97.40885765 -199.62890625 95.58203125 C-198.64374023 94.66067383 -198.64374023 94.66067383 -197.63867188 93.72070312 C-196.95353516 93.09099609 -196.26839844 92.46128906 -195.5625 91.8125 C-194.88123047 91.17119141 -194.19996094 90.52988281 -193.49804688 89.86914062 C-188.3877876 85.12926253 -188.3877876 85.12926253 -185 84 C-185 83.34 -185 82.68 -185 82 C-183.08049964 80.30577862 -181.15493784 78.7409009 -179.125 77.1875 C-178.51237305 76.71119141 -177.89974609 76.23488281 -177.26855469 75.74414062 C-171.25466569 71.10887064 -165.0832227 66.68891262 -158.86767578 62.32885742 C-158.13274902 61.80783447 -157.39782227 61.28681152 -156.640625 60.75 C-155.98610352 60.29109375 -155.33158203 59.8321875 -154.65722656 59.359375 C-152.73354599 57.91613081 -152.73354599 57.91613081 -151 55 C-150.34 55 -149.68 55 -149 55 C-147.4920281 54.19298931 -146.01481046 53.32816629 -144.5546875 52.4375 C-143.19754639 51.6185022 -143.19754639 51.6185022 -141.81298828 50.78295898 C-140.35868408 49.90039429 -140.35868408 49.90039429 -138.875 49 C-129.7689272 43.54036257 -120.56586939 38.59119121 -111 34 C-108.89605076 32.92221592 -106.79264129 31.84382831 -104.69482422 30.75415039 C-103 30 -103 30 -101 30 C-100.67 29.34 -100.34 28.68 -100 28 C-98.01779908 27.28213931 -96.01124876 26.63191998 -94 26 C-92.36721299 25.38256244 -90.7386819 24.75381557 -89.11328125 24.1171875 C-60.10902345 12.86135105 -30.75694102 5.46120725 0 1 C0 0.67 0 0.34 0 0 Z M-279 458 C-278 460 -278 460 -278 460 Z " fill="#CE290A" transform="translate(309,10)"/>
<path d="M0 0 C13.68043477 7.12173913 25.73984629 16.81970469 37.25 27 C38.18972656 27.81726563 39.12945312 28.63453125 40.09765625 29.4765625 C52.05382154 40.00644003 52.05382154 40.00644003 52.52734375 44.81835938 C52.21748147 48.37304708 51.31509875 50.55491901 49.6875 53.71875 C49.14174316 54.80397949 48.59598633 55.88920898 48.03369141 57.00732422 C47.15076416 58.73619873 47.15076416 58.73619873 46.25 60.5 C36.54504905 80.04077438 24.25 105.64555294 24.25 128 C40.31791893 103.53314046 40.31791893 103.53314046 55.6875 78.625 C56.78456202 76.79166834 57.88185549 74.95847595 58.97949219 73.12548828 C59.9120862 71.56531083 60.84204702 70.00355862 61.77050781 68.44091797 C63.43949556 65.64092575 65.12482228 62.85125935 66.8125 60.0625 C67.33062256 59.18609863 67.84874512 58.30969727 68.38256836 57.40673828 C76.67889347 43.78699202 76.67889347 43.78699202 83.47387695 41.13061523 C91.39009501 39.39933005 98.92745689 43.9715854 105.44921875 47.953125 C113.5412748 53.38036645 120.96782765 59.53905089 128.25 66 C128.95125 66.60457031 129.6525 67.20914063 130.375 67.83203125 C136.71780547 73.65098895 142.51134635 81.64528708 143.0625 90.4375 C142.75200859 94.09309701 142.28895921 94.95181361 139.875 97.9375 C133.76301856 101.96488452 126.76178122 102.99732454 119.625 103.8125 C101.93138238 106.03954602 84.89396066 111.60070325 67.9375 116.9375 C66.75763016 117.30751129 66.75763016 117.30751129 65.55392456 117.68499756 C53.64797155 121.43283718 41.92998068 125.60034775 30.25 130 C31.49386475 130.01981934 32.73772949 130.03963867 34.01928711 130.06005859 C38.71803081 130.13722194 43.41650834 130.22574908 48.11499023 130.31738281 C50.1328397 130.3552225 52.15074638 130.39014563 54.16870117 130.421875 C95.64909432 131.08176691 95.64909432 131.08176691 106.4375 138.0625 C109.28447464 141.10581771 109.7169221 143.53605291 109.65625 147.71484375 C108.54560809 153.96220449 103.47405495 159.60108246 98.609375 163.46484375 C83.38067258 173.37358556 66.75548045 177.33865506 49.10668945 180.58276367 C47.17007139 180.93986994 47.17007139 180.93986994 45.25 182 C48.58125783 186.20790463 52.0850257 189.95878796 56.125 193.5 C56.90617187 194.1909375 57.68734375 194.881875 58.4921875 195.59375 C64.50079061 198.65762694 72.03366469 195.36049637 78.23364258 193.77685547 C95.13253409 189.51588084 110.73066498 187.06972489 127.25 194 C128.20648437 194.38929688 129.16296875 194.77859375 130.1484375 195.1796875 C139.4561705 199.39686412 147.27638492 205.71327158 155.25 212 C155.80171875 212.42780762 156.3534375 212.85561523 156.921875 213.29638672 C171.74295956 224.79114832 171.74295956 224.79114832 174.1171875 231.421875 C174.2958565 234.8901556 173.40503407 236.31185478 171.25 239 C159.7324551 245.74744666 144.2068937 245.29891944 131.3203125 245.1953125 C129.95026865 245.19156856 128.58022208 245.18872815 127.21017456 245.18673706 C123.6559877 245.17920903 120.10197212 245.15965802 116.54785156 245.1373291 C112.90041418 245.11663297 109.2529483 245.10768528 105.60546875 245.09765625 C98.48691036 245.07639832 91.36846654 245.04239872 84.25 245 C86.61775663 247.06614617 88.98832662 249.12903891 91.359375 251.19140625 C92.02243652 251.77007446 92.68549805 252.34874268 93.36865234 252.94494629 C98.352719 257.27619195 103.43168225 261.43647061 108.734375 265.375 C111.25727701 267.25492241 113.7642689 269.15400545 116.265625 271.0625 C140.42359984 289.3340077 166.45835086 305.51937849 192.52368164 320.90087891 C211.75883135 332.26324702 211.75883135 332.26324702 216.25 339 C215.875 341.6875 215.875 341.6875 215.25 344 C205.62999569 347.47796396 195.83378265 350.00820057 185.9140625 352.46435547 C183.25339703 353.12415759 180.5953999 353.79399844 177.9375 354.46484375 C156.79266877 359.760954 136.47990796 363.79821577 116.25 353 C112.73900213 350.5197538 109.45752085 347.85980288 106.25 345 C106.28867187 345.95777344 106.32734375 346.91554688 106.3671875 347.90234375 C106.26965143 386.90701986 80.50636964 439.75233241 54.53125 467.7734375 C47.12604423 475.00112121 38.62490482 478.93417911 28.25 479.4375 C18.18213252 479.04422393 10.30123652 473.87523062 3.25 467 C-9.46229728 452.72070152 -26.75 426.68806662 -26.75 407 C-20.7677725 407.82088885 -15.01084578 409.44613051 -9.1875 411 C-7.14488269 411.54299043 -5.10192501 412.08470243 -3.05859375 412.625 C-2.15939209 412.86476563 -1.26019043 413.10453125 -0.33374023 413.3515625 C6.37690209 415.03572257 12.59053364 415.95146125 19.375 414.1875 C35.69775034 401.76801605 40.22613034 370.78237943 44.0625 351.9375 C44.37296265 350.422771 44.37296265 350.422771 44.68969727 348.87744141 C46.04213452 341.93815703 46.79632993 335.05335921 47.25 328 C39.0054324 325.2518108 30.3261172 327.5697116 22.125 329.5 C21.073125 329.73847656 20.02125 329.97695313 18.9375 330.22265625 C16.37265028 330.80557664 13.81045932 331.3981416 11.25 332 C10.99347656 332.95777344 10.73695313 333.91554688 10.47265625 334.90234375 C2.26579599 364.03540206 -17.50581632 388.89811061 -38.20166016 410.38427734 C-39.49809218 411.7371293 -40.77320885 413.11036463 -42.04296875 414.48828125 C-60.16454586 433.66140055 -90.20389607 453.77842096 -117.26171875 455.125 C-121.72500204 455.22925187 -124.81018886 455.29143039 -128.75 453 C-127.21358053 448.96458502 -124.39390396 446.86351775 -121.125 444.25 C-113.83910688 438.2109119 -107.12969542 431.61554375 -100.4375 424.9375 C-99.92652771 424.43134155 -99.41555542 423.92518311 -98.88909912 423.40368652 C-92.79782119 417.36149438 -87.08179302 411.20677167 -81.74731445 404.46875 C-79.67312128 401.90497523 -77.49095507 399.48107303 -75.25 397.0625 C-71.21534486 392.62927408 -67.62147996 387.96935754 -64.07421875 383.140625 C-62.47527894 380.98004078 -60.86435386 378.84860831 -59.20703125 376.734375 C-53.97626606 370.06142299 -49.14543971 363.26266363 -44.75 356 C-45.48605469 355.43152344 -46.22210938 354.86304688 -46.98046875 354.27734375 C-55.57708837 347.20847317 -61.24261682 338.50708906 -66.75 329 C-67.31976563 328.10925781 -67.88953125 327.21851563 -68.4765625 326.30078125 C-69.75 324 -69.75 324 -69.75 321 C-70.2668335 321.37697021 -70.78366699 321.75394043 -71.31616211 322.14233398 C-109.96107812 350.17131193 -109.96107812 350.17131193 -132.75 351 C-132.42 351.66 -132.09 352.32 -131.75 353 C-130.4828917 364.47839214 -130.50921855 376.09110798 -130.5 387.625 C-130.49899292 388.50574188 -130.49798584 389.38648376 -130.49694824 390.29391479 C-130.50706905 403.40468054 -130.93020275 416.14682933 -133.75 429 C-133.88921875 429.6815918 -134.0284375 430.36318359 -134.171875 431.06542969 C-136.8507686 443.8955937 -141.75217873 457.97805978 -152.75 466 C-158.3036127 468.58307568 -162.82857085 469.05977361 -168.58203125 466.97265625 C-196.8275477 453.88327058 -214.15836284 417.10957412 -224.546875 389.2578125 C-228.83603663 377.43125361 -228.83603663 377.43125361 -229.75 372 C-225.68978182 373.45540909 -222.35406373 375.45634334 -218.75 377.8125 C-208.95484938 383.98672771 -199.39698252 387.59059252 -187.75 388 C-184.22755409 379.309293 -183.57764734 370.36712902 -182.6875 361.125 C-182.51555497 359.41068391 -182.3431872 357.69641017 -182.17041016 355.98217773 C-180.77907533 342.00524958 -179.65581519 328.01670914 -178.75 314 C-178.65903045 312.61522278 -178.56787545 311.23045774 -178.4765625 309.84570312 C-177.88722207 300.89799487 -177.31222219 291.94945646 -176.75 283 C-177.88953125 283.556875 -179.0290625 284.11375 -180.203125 284.6875 C-188.965683 288.92720626 -197.77245811 292.94648324 -206.8125 296.5625 C-207.67456055 296.90861328 -208.53662109 297.25472656 -209.42480469 297.61132812 C-215.48441095 300 -215.48441095 300 -217.75 300 C-217.88535156 301.04671875 -218.02070313 302.0934375 -218.16015625 303.171875 C-221.16514249 324.84108306 -226.11769953 346.27782976 -235.75 366 C-236.07081543 366.66773438 -236.39163086 367.33546875 -236.72216797 368.0234375 C-245.82086775 386.7291443 -259.69423591 408.05945782 -279.5703125 416.3125 C-282.74016241 417.31230929 -285.46770921 417.40191316 -288.75 417 C-290.75 415 -290.75 415 -290.98046875 411.77563477 C-290.75565895 408.09270721 -290.1343463 405.11014922 -289.0625 401.58984375 C-288.69785645 400.37014893 -288.33321289 399.1504541 -287.95751953 397.89379883 C-287.6629184 396.93009872 -287.6629184 396.93009872 -287.36236572 395.94692993 C-286.29780857 392.4536694 -285.27374003 388.94843039 -284.2421875 385.4453125 C-283.81608289 384.00423113 -283.38997614 382.5631504 -282.96386719 381.12207031 C-266.99035621 326.95879971 -257.61375812 271.4593253 -252.375 215.3125 C-252.31054562 214.62175888 -252.24609123 213.93101776 -252.17968369 213.21934509 C-249.96348493 189.36735352 -248.51907711 165.73957583 -248.39990234 141.78222656 C-248.38322698 139.33323745 -248.35578851 136.88429921 -248.31787109 134.43554688 C-248.0472715 116.75009863 -248.06132845 102.58634048 -260.75 89 C-263.37420243 86.44966401 -266.00557297 83.92128323 -268.7109375 81.45703125 C-271.0860211 78.59510101 -271.4639081 76.66091677 -271.75 73 C-262.75401476 65.60330102 -252.51660152 63.86764584 -241.00439453 64.72363281 C-234.76670655 65.48831364 -228.66993158 67.1317986 -222.59765625 68.7109375 C-221.7689502 68.92113525 -220.94024414 69.13133301 -220.08642578 69.34790039 C-217.75 70 -217.75 70 -215.80029297 70.77514648 C-208.92226446 73.28761492 -203.15890304 70.01920792 -196.75 67.3125 C-195.61304688 66.85166016 -194.47609375 66.39082031 -193.3046875 65.91601562 C-191.10605819 65.02457601 -188.91057139 64.12533495 -186.71875 63.21728516 C-183.08990865 61.72934083 -179.43231969 60.34928136 -175.75 59 C-177.14759905 55.45481116 -177.14759905 55.45481116 -178.75 52 C-178.875 48.9375 -178.875 48.9375 -178.75 46 C-178.42 45.67 -178.09 45.34 -177.75 45 C-170.3136599 45.00961886 -163.4204148 47.01517711 -156.4375 49.375 C-155.39932129 49.7251416 -154.36114258 50.0752832 -153.29150391 50.43603516 C-134.30472042 57.10004086 -108.97259583 68.98226902 -97.234375 86.2265625 C-96.4569679 90.67784511 -98.67498293 93.69380398 -100.75 97.5625 C-109.69329176 115.42334496 -113.17705946 133.99567904 -116.35552979 153.58898926 C-116.79073065 156.24894662 -117.2352237 158.90725003 -117.68115234 161.56542969 C-123.60699922 196.92188925 -128.58224421 232.19207679 -130.75 268 C-130.79303253 268.65681763 -130.83606506 269.31363525 -130.88040161 269.99035645 C-131.90790502 285.90754742 -131.86556121 301.80560843 -131.8125 317.75 C-131.80747108 320.40494707 -131.80291065 323.05989506 -131.79882812 325.71484375 C-131.78794181 332.14324988 -131.77131579 338.57162042 -131.75 345 C-130.17044256 343.27474788 -128.59266824 341.54786313 -127.015625 339.8203125 C-125.69739746 338.37809326 -125.69739746 338.37809326 -124.35253906 336.90673828 C-120.78971879 332.92747579 -117.43473073 328.79818012 -114.08251953 324.64160156 C-111.98546752 322.05813184 -109.86173191 319.49683091 -107.74121094 316.93261719 C-98.02378773 305.17385115 -88.4205633 293.36545338 -79.3125 281.125 C-78.44334961 279.96605225 -78.44334961 279.96605225 -77.55664062 278.78369141 C-73.83522625 273.73552132 -70.65934148 268.55531966 -67.75 263 C-68.72582031 263.15597656 -69.70164062 263.31195313 -70.70703125 263.47265625 C-82.94847141 265.19771225 -94.35705378 265.53091096 -104.75 258 C-109.0266102 254.6020901 -112.91521979 250.88443923 -116.75 247 C-117.89275391 245.8553125 -117.89275391 245.8553125 -119.05859375 244.6875 C-123.49845498 239.97070577 -123.49845498 239.97070577 -124.359375 236.6484375 C-123.36821154 232.34068864 -120.3530235 230.34471401 -116.75 228 C-114.11985647 226.92389891 -111.91421317 226.18925486 -109.1875 225.5625 C-108.41664063 225.37131592 -107.64578125 225.18013184 -106.8515625 224.9831543 C-91.97648315 221.46409617 -76.81755265 219.03215127 -61.77246094 216.3604126 C-57.42932092 215.58644345 -53.08961382 214.79346387 -48.75 214 C-48.358125 212.80375 -47.96625 211.6075 -47.5625 210.375 C-45.40042703 203.87838652 -43.06840461 197.44204917 -40.75 191 C-41.98363281 191.2165625 -41.98363281 191.2165625 -43.2421875 191.4375 C-64.06030717 194.89917348 -64.06030717 194.89917348 -73.75 188 C-80.92563932 182.01992246 -87.05246553 175.0192349 -92.5625 167.5 C-92.98917969 166.92515869 -93.41585937 166.35031738 -93.85546875 165.75805664 C-96.20465659 162.39932898 -97.26420002 160.1136002 -96.75 156 C-91.54939673 153.02891561 -86.46059086 151.85517393 -80.6640625 150.66015625 C-79.6894809 150.45192734 -78.71489929 150.24369843 -77.71078491 150.02915955 C-74.60043637 149.36588398 -71.48791392 148.71361904 -68.375 148.0625 C-64.3038302 147.20323069 -60.23368058 146.33924318 -56.1640625 145.47265625 C-55.18358948 145.26444244 -54.20311646 145.05622864 -53.19293213 144.84170532 C-44.9935574 143.08587702 -36.8631387 141.1184389 -28.75 139 C-25.60327951 124.74462437 -23.54334169 111.64977832 -23.75 97 C-24.11125977 97.49177734 -24.47251953 97.98355469 -24.84472656 98.49023438 C-29.13846359 104.33275463 -33.44148383 110.16837109 -37.75 116 C-38.32024902 116.77263184 -38.89049805 117.54526367 -39.47802734 118.34130859 C-42.45531093 122.36908288 -45.45308601 126.37927193 -48.49707031 130.35693359 C-49.61171072 131.81865026 -50.70943535 133.29323129 -51.8046875 134.76953125 C-54.52630897 138.22296649 -55.84833276 139.7704847 -60.1875 140.875 C-68.0559432 138.94239992 -72.76988446 133.47872191 -77.09375 126.875 C-88.57774693 106.94051476 -96.76306492 77.01873019 -93.75 54 C-91.4493865 48.6993865 -91.4493865 48.6993865 -89.75 47 C-81.16276143 46.86149615 -75.97422727 50.34492833 -69.75 56 C-66.23100558 59.41353005 -62.78250037 62.89501555 -59.40795898 66.45141602 C-55.28926929 70.734381 -51.62901035 74.31223221 -45.546875 75.390625 C-37.30856053 74.82463393 -32.48598322 69.2373915 -27.265625 63.31640625 C-24.05041145 59.01780552 -23.47139454 54.51597554 -24.04516602 49.33447266 C-24.56850461 46.16523637 -25.17309175 43.02287376 -25.8125 39.875 C-26.03566895 38.73442139 -26.25883789 37.59384277 -26.48876953 36.41870117 C-28.18259059 28.05378623 -30.30835846 19.87699719 -32.95727539 11.76318359 C-34.5164645 6.79822442 -35.07323573 3.19370024 -33.75 -2 C-25.36655469 -12.61903073 -9.78829492 -4.60691901 0 0 Z " fill="#010000" transform="translate(398.75,100)"/>
<path d="M0 0 C9.6060621 -0.04650391 19.21208496 -0.08196047 28.8182354 -0.10362434 C33.27958043 -0.11402608 37.74084798 -0.12811874 42.20214844 -0.15087891 C46.51396564 -0.1727368 50.82570869 -0.18459573 55.13757706 -0.18975449 C56.77606497 -0.19342714 58.41454919 -0.2005984 60.05300522 -0.21146011 C68.5907676 -0.265767 76.66813575 -0.09907839 85 2 C86.99361614 2.34784488 88.98942445 2.68365704 90.98828125 3 C92.53394775 3.24592896 92.53394775 3.24592896 94.11083984 3.49682617 C95.1673877 3.66287354 96.22393555 3.8289209 97.3125 4 C98.41029785 4.17442627 99.5080957 4.34885254 100.63916016 4.52856445 C107.33496163 5.58994872 114.03364386 6.62752029 120.7421875 7.60546875 C123.19741155 8.03449579 125.44945954 8.81291157 127.8046875 9.61328125 C138.67252903 13.39334431 138.67252903 13.39334431 149.76220703 16.39233398 C155.6878033 18.001412 161.37203728 20.63657342 167.0625 22.9375 C167.78186737 23.22768005 168.50123474 23.51786011 169.24240112 23.8168335 C180.25639958 28.2777603 190.80103975 33.22001619 201.17333984 39.03515625 C202.99433317 39.99700677 204.82867876 40.81315102 206.73046875 41.6015625 C209.52340728 42.7961527 211.77782462 44.01753064 214.25 45.75 C217.45675442 47.95598878 220.69372617 50.07110262 224 52.125 C241.29815017 63.126334 257.40653638 75.58340339 272.38671875 89.5703125 C274.65725606 91.68133523 276.96279436 93.72826474 279.3125 95.75 C284.95020966 100.65387555 290.07906803 105.94290367 294.9453125 111.609375 C296.4875053 113.40371339 298.04791375 115.18242209 299.6171875 116.953125 C337.67448926 160.15051649 361.72836032 212.25761393 374.49438477 268.06176758 C374.94476831 270.0620063 374.94476831 270.0620063 376 272 C376.71894461 276.35941868 377.18558651 280.75307394 377.67773438 285.14306641 C377.90719904 287.17730543 378.14362224 289.21076467 378.38476562 291.24365234 C387.15692209 366.12918239 374.19829708 444.8154948 335 510 C334.54544434 510.75941895 334.09088867 511.51883789 333.62255859 512.30126953 C322.9284712 530.02447234 310.7820951 546.56087834 297 562 C296.15179687 562.9590625 295.30359375 563.918125 294.4296875 564.90625 C290.72696859 569.0611161 286.9353573 573.0646427 283 577 C282.278125 577.928125 281.55625 578.85625 280.8125 579.8125 C280.214375 580.534375 279.61625 581.25625 279 582 C278.34 582 277.68 582 277 582 C277 582.66 277 583.32 277 584 C275.77734375 585.26953125 275.77734375 585.26953125 273.9375 586.8125 C271.16558913 589.16058618 268.40676656 591.51654919 265.69140625 593.9296875 C250.4568322 607.41886939 234.10930872 619.00500023 217 630 C216.29327148 630.45616699 215.58654297 630.91233398 214.85839844 631.38232422 C194.24298214 644.53109758 171.07473731 654.11842448 148 662 C146.61216309 662.47493896 146.61216309 662.47493896 145.19628906 662.95947266 C122.30839745 670.65170018 96.33108624 677.85372232 72 677 C71.67 677.66 71.34 678.32 71 679 C7.90060165 679.54744539 -52.86019415 672.68557055 -110 644 C-110.85754883 643.57332031 -111.71509766 643.14664063 -112.59863281 642.70703125 C-123.80240352 637.09435228 -134.53368539 630.88541145 -145 624 C-145.74749512 623.51160645 -146.49499023 623.02321289 -147.26513672 622.52001953 C-163.0308809 612.16527481 -177.46848604 600.57638996 -191.16796875 587.62109375 C-193.13249449 585.8028913 -195.08026697 584.08944272 -197.1484375 582.40234375 C-199.5180968 580.40598694 -201.46603716 578.49468851 -203.4375 576.125 C-205.65483053 573.51951533 -207.91104073 571.06041227 -210.375 568.6875 C-214.99653058 564.13834238 -218.95335684 559.0565384 -223 554 C-223.62519531 553.24203125 -224.25039062 552.4840625 -224.89453125 551.703125 C-233.91464081 540.68909648 -242.23893942 529.05198393 -249.8125 517 C-250.23901855 516.32372559 -250.66553711 515.64745117 -251.10498047 514.95068359 C-254 510.25674627 -254 510.25674627 -254 508 C-254.66 508 -255.32 508 -256 508 C-256.40863281 507.01902344 -256.81726563 506.03804687 -257.23828125 505.02734375 C-259.05559754 500.78693908 -261.1053702 496.67781261 -263.1875 492.5625 C-263.55552734 491.83095703 -263.92355469 491.09941406 -264.30273438 490.34570312 C-265.19997639 488.56287159 -266.09972593 486.78130237 -267 485 C-267.66 485.33 -268.32 485.66 -269 486 C-269.09539062 485.01644531 -269.19078125 484.03289062 -269.2890625 483.01953125 C-269.92647299 478.57890483 -271.54889673 474.75850295 -273.375 470.6875 C-273.83132813 469.61532227 -273.83132813 469.61532227 -274.296875 468.52148438 C-275.85786115 464.982582 -276.71629512 463.18913659 -280 461 C-280.2055584 458.97867575 -280.40130427 456.95593097 -280.55078125 454.9296875 C-281.49797 448.75236959 -283.90478652 442.86814404 -286 437 C-286.66 437 -287.32 437 -288 437 C-287.92652344 435.53626953 -287.92652344 435.53626953 -287.8515625 434.04296875 C-287.85382947 429.53964107 -289.04049268 425.5821737 -290.375 421.3125 C-290.59671875 420.56677734 -290.8184375 419.82105469 -291.046875 419.05273438 C-291.93876874 416.11210824 -292.7931042 413.39336559 -294.2265625 410.66796875 C-295 409 -295 409 -294 406 C-294.1978333 403.66673204 -294.1978333 403.66673204 -294.70703125 401.08984375 C-294.88065186 400.10951172 -295.05427246 399.12917969 -295.2331543 398.11914062 C-295.51993042 396.54422852 -295.51993042 396.54422852 -295.8125 394.9375 C-303.79907748 348.84608156 -302.23103491 302.41190308 -291.3671875 256.890625 C-290.0320384 251.29447994 -288.96565348 245.67058633 -288 240 C-287.34 240 -286.68 240 -286 240 C-285.90203125 239.42894531 -285.8040625 238.85789063 -285.703125 238.26953125 C-284.37156383 231.04925558 -282.64851886 223.85925001 -280 217 C-279.34 216.67 -278.68 216.34 -278 216 C-277.228091 213.99306861 -277.228091 213.99306861 -276.625 211.5625 C-275.33318806 206.9451004 -273.6803079 202.62063315 -271.76953125 198.2265625 C-270.78223005 195.76253632 -270.78223005 195.76253632 -271 192 C-270.01 192 -269.02 192 -268 192 C-267.7628125 191.18273437 -267.525625 190.36546875 -267.28125 189.5234375 C-265.74206138 185.29066879 -263.71140758 181.53836769 -261.5 177.625 C-261.05567627 176.83480469 -260.61135254 176.04460937 -260.15356445 175.23046875 C-246.451531 151.06036212 -230.20872018 128.59197969 -211.14453125 108.35546875 C-208.88994118 105.99739739 -208.88994118 105.99739739 -207 103 C-206.34 103 -205.68 103 -205 103 C-204.60929321 102.11574341 -204.60929321 102.11574341 -204.21069336 101.21362305 C-202.92243186 98.85817497 -201.58522387 97.40885765 -199.62890625 95.58203125 C-198.64374023 94.66067383 -198.64374023 94.66067383 -197.63867188 93.72070312 C-196.95353516 93.09099609 -196.26839844 92.46128906 -195.5625 91.8125 C-194.88123047 91.17119141 -194.19996094 90.52988281 -193.49804688 89.86914062 C-188.3877876 85.12926253 -188.3877876 85.12926253 -185 84 C-185 83.34 -185 82.68 -185 82 C-183.08049964 80.30577862 -181.15493784 78.7409009 -179.125 77.1875 C-178.51237305 76.71119141 -177.89974609 76.23488281 -177.26855469 75.74414062 C-171.25466569 71.10887064 -165.0832227 66.68891262 -158.86767578 62.32885742 C-158.13274902 61.80783447 -157.39782227 61.28681152 -156.640625 60.75 C-155.98610352 60.29109375 -155.33158203 59.8321875 -154.65722656 59.359375 C-152.73354599 57.91613081 -152.73354599 57.91613081 -151 55 C-150.34 55 -149.68 55 -149 55 C-147.4920281 54.19298931 -146.01481046 53.32816629 -144.5546875 52.4375 C-143.19754639 51.6185022 -143.19754639 51.6185022 -141.81298828 50.78295898 C-140.35868408 49.90039429 -140.35868408 49.90039429 -138.875 49 C-129.7689272 43.54036257 -120.56586939 38.59119121 -111 34 C-108.89605076 32.92221592 -106.79264129 31.84382831 -104.69482422 30.75415039 C-103 30 -103 30 -101 30 C-100.67 29.34 -100.34 28.68 -100 28 C-98.01779908 27.28213931 -96.01124876 26.63191998 -94 26 C-92.36721299 25.38256244 -90.7386819 24.75381557 -89.11328125 24.1171875 C-60.10902345 12.86135105 -30.75694102 5.46120725 0 1 C0 0.67 0 0.34 0 0 Z M-19.9375 39.625 C-21.16331787 39.88297363 -22.38913574 40.14094727 -23.65209961 40.40673828 C-70.54299929 50.59583833 -114.50837966 70.97682992 -152 101 C-152.91910156 101.72574219 -153.83820313 102.45148438 -154.78515625 103.19921875 C-168.88067502 114.49591509 -182.54818802 127.07438842 -193.78125 141.234375 C-195.22011132 143.02788524 -196.69780595 144.79117435 -198.21875 146.515625 C-211.69522153 161.87880254 -222.72712515 179.82579104 -232 198 C-232.40911621 198.79905762 -232.81823242 199.59811523 -233.23974609 200.42138672 C-261.97447541 257.17385594 -273.13043589 324.08048899 -262 387 C-261.81775879 388.04542969 -261.63551758 389.09085937 -261.44775391 390.16796875 C-260.1395453 397.48606801 -258.63587081 404.74860343 -257 412 C-256.72615479 413.2372583 -256.72615479 413.2372583 -256.44677734 414.49951172 C-245.88589775 461.23847375 -221.27993266 504.95508055 -189.43261719 540.40429688 C-188.12549474 541.86021922 -186.83155376 543.32794842 -185.5390625 544.796875 C-177.9023244 553.42504928 -169.85089267 561.61476962 -161 569 C-160.45633789 569.45745605 -159.91267578 569.91491211 -159.35253906 570.38623047 C-149.62448095 578.54616064 -139.59988144 586.01364779 -129 593 C-128.04738281 593.63421875 -127.09476563 594.2684375 -126.11328125 594.921875 C-84.96448091 621.73932933 -37.68828735 637.59797868 11 643 C11.85166748 643.09571289 12.70333496 643.19142578 13.58081055 643.29003906 C61.68320092 648.20734855 112.55776853 639.52768778 157 621 C157.82274414 620.65743164 158.64548828 620.31486328 159.49316406 619.96191406 C202.17204473 601.95387672 243.05793217 573.67447115 273 538 C273.46567383 537.44812012 273.93134766 536.89624023 274.41113281 536.32763672 C282.29080678 526.95116879 289.45625474 517.35106771 296 507 C296.67417969 505.94554687 297.34835937 504.89109375 298.04296875 503.8046875 C329.03034989 454.44754149 345.13824899 399.89648649 345.24023438 341.5480957 C345.24986786 338.23297323 345.28094054 334.91849152 345.3125 331.60351562 C345.38600038 316.85304511 344.26850061 302.57298727 342 288 C341.8911145 287.29154938 341.782229 286.58309875 341.67004395 285.85317993 C333.95168746 236.80509995 312.12288908 188.59874489 281 150 C280.33613281 149.1440625 279.67226563 148.288125 278.98828125 147.40625 C265.21942399 129.75530114 248.96412284 112.59124119 230.86230469 99.375 C228.80231562 97.85404321 226.78074456 96.28862485 224.7578125 94.71875 C185.71537819 64.74377656 138.49773676 45.69274445 90 38 C89.10039551 37.84901855 88.20079102 37.69803711 87.27392578 37.54248047 C70.54771411 34.83981388 53.83809836 34.70987088 36.9375 34.6875 C35.84048767 34.68391479 34.74347534 34.68032959 33.61322021 34.67663574 C15.37630616 34.6445999 -2.07070004 35.84246398 -19.9375 39.625 Z M-279 458 C-278 460 -278 460 -278 460 Z " fill="#000000" transform="translate(309,10)"/>
<path d="M0 0 C0.43344727 0.87213135 0.86689453 1.7442627 1.31347656 2.64282227 C2.93655552 5.9072084 4.56236571 9.17022803 6.18896484 12.43286133 C6.88989526 13.83972189 7.59010437 15.24694207 8.28955078 16.65454102 C9.30046896 18.6886353 10.31405488 20.72138184 11.328125 22.75390625 C11.63558655 23.37399063 11.9430481 23.99407501 12.25982666 24.63294983 C13.83027231 27.7742365 15.48163144 30.82137157 17.29199219 33.82788086 C18.13745605 35.39807983 18.13745605 35.39807983 19 37 C18.505 37.99 18.505 37.99 18 39 C16.85724609 38.98259766 16.85724609 38.98259766 15.69140625 38.96484375 C14.65886719 38.95582031 13.62632812 38.94679688 12.5625 38.9375 C11.45777344 38.92460937 10.35304688 38.91171875 9.21484375 38.8984375 C6.44149476 38.98605241 4.28442089 39.38884707 1.625 40.0625 C-3.70742998 40.78309865 -7.34356505 37.50390045 -11.49780273 34.61694336 C-23.15404044 26.60823582 -41.73100719 20.57427122 -56 23 C-58.38922632 23.90358506 -60.67523809 24.93354369 -63 26 C-63.0093457 26.61294922 -63.01869141 27.22589844 -63.02832031 27.85742188 C-63.64252071 60.06079174 -63.64252071 60.06079174 -69.55078125 66.7578125 C-71.70293017 68.0020956 -73.56560736 68.4872964 -76 69 C-77.00160156 69.28746094 -78.00320313 69.57492187 -79.03515625 69.87109375 C-86.95478828 71.91692292 -101.20054797 74.89972601 -109 71 C-107.64371514 67.91996393 -106.17552883 66.05545533 -103.6875 63.8125 C-94.36063281 54.70449431 -87.03132794 43.4834685 -79.4375 32.9375 C-78.90415039 32.19838379 -78.37080078 31.45926758 -77.82128906 30.69775391 C-74.57768665 26.20031685 -74.57768665 26.20031685 -71.36035156 21.68408203 C-69.77428245 19.44623616 -68.17018267 17.22234771 -66.5625 15 C-66.09062256 14.32316162 -65.61874512 13.64632324 -65.13256836 12.94897461 C-64.67760986 12.32643799 -64.22265137 11.70390137 -63.75390625 11.0625 C-63.36533447 10.51722656 -62.9767627 9.97195313 -62.57641602 9.41015625 C-57.89577808 5.22317085 -50.3856596 5.23507182 -44.4140625 4.4921875 C-43.39831146 4.36184113 -42.38256042 4.23149475 -41.33602905 4.09719849 C-39.19314371 3.82373098 -37.04987214 3.55327524 -34.90625 3.28564453 C-31.64211097 2.87714142 -28.37964378 2.4568644 -25.1171875 2.03515625 C-23.02873546 1.7701261 -20.9401964 1.50578062 -18.8515625 1.2421875 C-17.88360748 1.11721893 -16.91565247 0.99225037 -15.91836548 0.86349487 C-10.56384704 0.20264778 -5.39506826 -0.12609376 0 0 Z " fill="#D02B0B" transform="translate(443,346)"/>
<path d="M0 0 C0.66 0.33 1.32 0.66 2 1 C-5.45598066 8.01470834 -13.19280641 14.48618142 -21.31835938 20.70800781 C-22.85095689 21.88549127 -24.37147901 23.07864971 -25.890625 24.2734375 C-65.32630935 54.78652288 -113.57177768 74.11568782 -163 80 C-163.77520996 80.09498779 -164.55041992 80.18997559 -165.34912109 80.2878418 C-201.42625561 84.1549926 -237.24894026 79.89485003 -272 70 C-272.90556641 69.74412109 -273.81113281 69.48824219 -274.74414062 69.22460938 C-286.81665848 65.7238563 -298.30294574 60.87869468 -309.8125 55.875 C-310.50903687 55.57326874 -311.20557373 55.27153748 -311.92321777 54.96066284 C-319.26772496 51.76391929 -326.34741351 48.51455934 -333 44 C-332.01 43.505 -332.01 43.505 -331 43 C-328.24840747 43.9314968 -325.57421054 44.93346005 -322.875 46 C-288.74945263 58.94473574 -251.43466791 66.99925131 -214.85546875 67.23828125 C-213.00210403 67.25304001 -213.00210403 67.25304001 -211.11129761 67.26809692 C-207.13668753 67.29325801 -203.16217613 67.30703697 -199.1875 67.3125 C-198.17359255 67.31400496 -198.17359255 67.31400496 -197.13920212 67.31554031 C-177.16960211 67.33373279 -157.61990296 67.17444744 -138 63 C-136.79053711 62.74798828 -135.58107422 62.49597656 -134.33496094 62.23632812 C-89.43075177 52.64111663 -33.31367104 33.31367104 0 0 Z " fill="#050000" transform="translate(539,569)"/>
<path d="M0 0 C0.811752 2.81640525 1.09593084 5.198587 0.96508789 8.12255859 C0.93077164 8.92374115 0.89645538 9.72492371 0.86109924 10.55038452 C0.6667442 14.19769595 0.46153404 17.84390589 0.2331543 21.48925781 C0.11964807 23.40863353 0.0219125 25.32900872 -0.05981445 27.25 C-0.17899669 30.03203348 -0.34779812 32.80722304 -0.52734375 35.5859375 C-0.55481186 36.43924652 -0.58227997 37.29255554 -0.61058044 38.17172241 C-0.88774712 41.74204956 -1.17208874 44.10330263 -3.65179443 46.78903198 C-5.69852205 48.36526756 -7.76580366 49.70525179 -10 51 C-11.07685059 51.64888184 -12.15370117 52.29776367 -13.26318359 52.96630859 C-14.29781738 53.52141113 -15.33245117 54.07651367 -16.3984375 54.6484375 C-17.53667969 55.26074219 -18.67492187 55.87304688 -19.84765625 56.50390625 C-21.59369141 57.43009766 -21.59369141 57.43009766 -23.375 58.375 C-24.5744919 59.02162898 -25.77371267 59.66876116 -26.97265625 60.31640625 C-35.73067697 65 -35.73067697 65 -38 65 C-37.88406494 64.23558594 -37.76812988 63.47117187 -37.64868164 62.68359375 C-37.11288792 59.12341721 -36.58728514 55.56181555 -36.0625 52 C-35.86994629 50.7210083 -35.67739258 49.4420166 -35.47900391 48.12426758 C-34.28701683 40.00670231 -34.28701683 40.00670231 -33.86328125 31.82421875 C-33.85868896 31.10685547 -33.85409668 30.38949219 -33.84936523 29.65039062 C-33.87311026 27.8321999 -33.96114534 26.01515686 -34.0546875 24.19921875 C-32.28255293 18.82374389 -27.69001377 16.8178474 -23 14 C-22.05350586 13.42113037 -21.10701172 12.84226074 -20.13183594 12.24584961 C-17.24969026 10.50997862 -14.34855138 8.81188691 -11.4375 7.125 C-9.47712741 5.98303538 -7.51745145 4.83987372 -5.55859375 3.6953125 C-4.70579834 3.20047363 -3.85300293 2.70563477 -2.97436523 2.19580078 C-1.07042333 1.14992457 -1.07042333 1.14992457 0 0 Z " fill="#D02B0A" transform="translate(224,291)"/>
<path d="M0 0 C-0.79766295 15.6803743 -1.89466816 31.33871885 -3 47 C-6.121983 48.27833161 -9.24811122 49.54622092 -12.375 50.8125 C-13.24511719 51.16892578 -14.11523438 51.52535156 -15.01171875 51.89257812 C-20.92328908 54.27910096 -26.86220259 56.27761674 -33 58 C-33.42330493 52.48745891 -33.72983002 46.98448592 -33.93383789 41.45947266 C-34.01887599 39.58605277 -34.13458419 37.71374707 -34.2824707 35.84423828 C-35.23772381 23.44908556 -35.23772381 23.44908556 -33 18 C-29.06321763 13.53675838 -23.66564661 11.22594216 -18.26351929 8.97909546 C-14.53765736 7.36745711 -11.0415632 5.35083647 -7.5 3.375 C-1.21951385 0 -1.21951385 0 0 0 Z " fill="#D12B0A" transform="translate(229,201)"/>
<path d="M0 0 C4.26202913 1.34729186 8.27423463 2.95655866 12.33203125 4.828125 C13.54578892 5.38371801 14.75974502 5.93887768 15.97387695 6.49365234 C16.60057281 6.78085144 17.22726868 7.06805054 17.87295532 7.36395264 C29.07149643 12.47981201 40.22431924 17.3586488 52 21 C52.86802246 21.27505371 53.73604492 21.55010742 54.63037109 21.83349609 C65.94853006 25.39550706 77.30513931 28.45794852 88.9375 30.8125 C89.89398438 31.007229 90.85046875 31.20195801 91.8359375 31.40258789 C107.23190562 34.36766961 122.35205265 35.37893288 138 35.3125 C138.8956366 35.31067719 139.79127319 35.30885437 140.71405029 35.30697632 C167.22836364 35.21646265 193.05400313 31.77540219 218.35546875 23.6015625 C221.05066383 22.98847529 222.43748219 23.05816768 225 24 C224.01 24.66 223.02 25.32 222 26 C225.96 25.67 229.92 25.34 234 25 C231.75296739 27.24703261 230.60224805 27.56063005 227.58203125 28.3671875 C226.66993896 28.61106201 225.75784668 28.85493652 224.81811523 29.10620117 C223.82626221 29.35990479 222.83440918 29.6136084 221.8125 29.875 C220.77875244 30.13966064 219.74500488 30.40432129 218.67993164 30.67700195 C152.7597908 47.1307891 78.12229104 43.6130325 17 12 C17.99 11.67 18.98 11.34 20 11 C19.42967041 10.73783691 18.85934082 10.47567383 18.27172852 10.20556641 C15.69893595 9.01852753 13.1307146 7.82190916 10.5625 6.625 C9.66466797 6.2125 8.76683594 5.8 7.84179688 5.375 C6.98779297 4.97539063 6.13378906 4.57578125 5.25390625 4.1640625 C4.46314697 3.79748535 3.6723877 3.4309082 2.85766602 3.05322266 C1 2 1 2 0 0 Z " fill="#E1330E" transform="translate(206,614)"/>
<path d="M0 0 C2.475 0.99 2.475 0.99 5 2 C5 2.66 5 3.32 5 4 C5.66 4 6.32 4 7 4 C7.33 3.34 7.66 2.68 8 2 C9.32 2.33 10.64 2.66 12 3 C12 3.66 12 4.32 12 5 C12.66 5.33 13.32 5.66 14 6 C14 6.66 14 7.32 14 8 C12.35 8.66 10.7 9.32 9 10 C8.67 9.34 8.34 8.68 8 8 C7.67 8.99 7.34 9.98 7 11 C10.02419525 10.41196203 13.01758453 9.77321882 16 9 C16 9.99 16 10.98 16 12 C16.99 11.67 17.98 11.34 19 11 C19 11.99 19 12.98 19 14 C19.99 14.66 20.98 15.32 22 16 C21.34 17.98 20.68 19.96 20 22 C19.01 22 18.02 22 17 22 C17 23.32 17 24.64 17 26 C15.35 26 13.7 26 12 26 C11.67 24.68 11.34 23.36 11 22 C11.66 21.67 12.32 21.34 13 21 C12.01 21 11.02 21 10 21 C10 23.31 10 25.62 10 28 C11.32 27.67 12.64 27.34 14 27 C14 27.66 14 28.32 14 29 C11.29686424 29.21917317 9.56041618 29.32851983 7.1875 27.9375 C5.39157863 25.00731249 5.81022426 22.3527047 6 19 C5.195625 19.020625 4.39125 19.04125 3.5625 19.0625 C1 19 1 19 0 18 C-0.66 19.98 -1.32 21.96 -2 24 C-0.68 23.67 0.64 23.34 2 23 C2.33 23.66 2.66 24.32 3 25 C2.34 25 1.68 25 1 25 C1.95865509 27.33075929 1.95865509 27.33075929 5 29 C2.69 29.33 0.38 29.66 -2 30 C-2 29.34 -2 28.68 -2 28 C-3.98 28.33 -5.96 28.66 -8 29 C-7.649375 28.38125 -7.29875 27.7625 -6.9375 27.125 C-5.58896565 22.62988551 -6.34040134 18.59045013 -7 14 C-6.34 14.33 -5.68 14.66 -5 15 C-5 15.66 -5 16.32 -5 17 C-4.01 13.37 -3.02 9.74 -2 6 C-1.67 6.66 -1.34 7.32 -1 8 C-0.34 8 0.32 8 1 8 C0.67 5.36 0.34 2.72 0 0 Z " fill="#C62609" transform="translate(62,354)"/>
<path d="M0 0 C4.11657157 1.19380575 7.04116181 2.46370862 10.25 5.3125 C10.91515625 5.88613281 11.5803125 6.45976562 12.265625 7.05078125 C14.21416554 9.24069505 15.06864225 11.23918954 16 14 C7.0146265 16.24113144 -1.72605107 18.41117785 -11 19 C-9.41467191 14.44435939 -7.00996919 10.68524231 -4.375 6.6875 C-3.95476562 6.04232422 -3.53453125 5.39714844 -3.1015625 4.73242188 C-2.07161759 3.15239276 -1.03634372 1.57583953 0 0 Z " fill="#D32D0B" transform="translate(408,292)"/>
<path d="M0 0 C0.33 0 0.66 0 1 0 C1.0694059 10.91765747 1.12276327 21.83526276 1.15543652 32.75309563 C1.17111533 37.82229256 1.19239389 42.89133895 1.22631836 47.96044922 C1.25883298 52.84930025 1.2768363 57.73800616 1.28463173 62.62695694 C1.29018948 64.49535534 1.30104192 66.36374549 1.31719017 68.23208237 C1.33885972 70.84223559 1.34197136 73.45178352 1.34057617 76.06201172 C1.351362 76.8402832 1.36214783 77.61855469 1.3732605 78.42041016 C1.36076355 80.57052612 1.36076355 80.57052612 1 84 C-0.485 84.99 -0.485 84.99 -2 86 C-2.02349079 78.78316096 -2.04109755 71.56633057 -2.05181217 64.3494606 C-2.05696263 60.99597531 -2.06448444 57.6425367 -2.07543945 54.2890625 C-2.19613804 16.34710626 -2.19613804 16.34710626 0 0 Z " fill="#E0310D" transform="translate(268,360)"/>
<path d="M0 0 C0.33 0.66 0.66 1.32 1 2 C1.66 2 2.32 2 3 2 C3 1.34 3 0.68 3 0 C3.99 0.33 4.98 0.66 6 1 C5.67 1.99 5.34 2.98 5 4 C4.01 4 3.02 4 2 4 C2 5.65 2 7.3 2 9 C2.66 7.68 3.32 6.36 4 5 C4.66 5 5.32 5 6 5 C6.33 5.99 6.66 6.98 7 8 C8.32 8 9.64 8 11 8 C11 8.66 11 9.32 11 10 C10.01 10 9.02 10 8 10 C8 10.66 8 11.32 8 12 C6.34385343 12.38218767 4.67542976 12.71395102 3 13 C2.67 12.67 2.34 12.34 2 12 C1.34 13.98 0.68 15.96 0 18 C1.32 17.67 2.64 17.34 4 17 C4.33 17.66 4.66 18.32 5 19 C4.34 19 3.68 19 3 19 C3.95865509 21.33075929 3.95865509 21.33075929 7 23 C4.69 23.33 2.38 23.66 0 24 C0 23.34 0 22.68 0 22 C-1.98 22.33 -3.96 22.66 -6 23 C-5.649375 22.38125 -5.29875 21.7625 -4.9375 21.125 C-3.58896565 16.62988551 -4.34040134 12.59045013 -5 8 C-4.34 8.33 -3.68 8.66 -3 9 C-3 9.66 -3 10.32 -3 11 C-2.01 7.37 -1.02 3.74 0 0 Z " fill="#B22209" transform="translate(60,360)"/>
<path d="M0 0 C2.51083114 1.25541557 2.87125446 2.50063488 4 5 C2.68 4.67 1.36 4.34 0 4 C1.15173355 6.46800047 2.04783565 8.04783565 4 10 C5.32 10 6.64 10 8 10 C8.99 12.97 9.98 15.94 11 19 C10.34 18.67 9.68 18.34 9 18 C9 17.34 9 16.68 9 16 C8.34 16 7.68 16 7 16 C7 15.34 7 14.68 7 14 C4.08365871 13.7497843 4.08365871 13.7497843 1 14 C0.01 15.485 0.01 15.485 -1 17 C-1 16.01 -1 15.02 -1 14 C-1.66 14 -2.32 14 -3 14 C-3 16.31 -3 18.62 -3 21 C-4.51171875 19.87109375 -4.51171875 19.87109375 -6 18 C-6.14453125 15.22265625 -6.14453125 15.22265625 -5.8125 12.0625 C-5.71582031 11.02222656 -5.61914062 9.98195313 -5.51953125 8.91015625 C-5.03805332 6.21315579 -4.37376182 4.34613645 -3 2 C-2.34 2 -1.68 2 -1 2 C-0.67 1.34 -0.34 0.68 0 0 Z " fill="#B62308" transform="translate(52,372)"/>
<path d="M0 0 C-1.98 0.99 -1.98 0.99 -4 2 C-3.33282959 1.98952637 -2.66565918 1.97905273 -1.97827148 1.96826172 C13.80852209 1.75512719 29.30128027 2.30332894 45 4 C45 4.33 45 4.66 45 5 C15.795 4.505 15.795 4.505 -14 4 C-11.8244694 1.8244694 -10.44026108 1.28120447 -7.5625 0.3125 C-6.78003906 0.04050781 -5.99757813 -0.23148438 -5.19140625 -0.51171875 C-3 -1 -3 -1 0 0 Z " fill="#EB340E" transform="translate(441,227)"/>
<path d="M0 0 C0.33 0 0.66 0 1 0 C1.87890625 6.15234375 1.87890625 6.15234375 2 8 C1.67 8.33 1.34 8.66 1 9 C0.59751484 11.96203921 0.27317844 14.89974199 0 17.875 C-0.08685059 18.81359863 -0.17370117 19.75219727 -0.26318359 20.71923828 C-1.52955043 35.77070902 -1.68341946 50.90451317 -2 66 C-2.33 66 -2.66 66 -3 66 C-3.05025719 60.08163627 -3.08611507 54.16340262 -3.10986328 48.24487305 C-3.11978612 46.24061921 -3.13332869 44.2363793 -3.15087891 42.23217773 C-3.42330726 10.26992178 -3.42330726 10.26992178 0 0 Z " fill="#EE340E" transform="translate(47,301)"/>
<path d="M0 0 C0.66 0 1.32 0 2 0 C2.66 1.98 3.32 3.96 4 6 C4.33 4.68 4.66 3.36 5 2 C6.9375 2.5 6.9375 2.5 9 4 C9.68790422 6.69658452 9.81946464 9.2017019 10 12 C9.34 12 8.68 12 8 12 C8 11.34 8 10.68 8 10 C7.34 10 6.68 10 6 10 C5.67 10.99 5.34 11.98 5 13 C5 12.34 5 11.68 5 11 C3.02 11.99 3.02 11.99 1 13 C1 12.34 1 11.68 1 11 C0.01 10.67 -0.98 10.34 -2 10 C-1.01 9.67 -0.02 9.34 1 9 C0.67 8.67 0.34 8.34 0 8 C-0.14115161 5.32941149 -0.04247107 2.67567762 0 0 Z " fill="#9B1D08" transform="translate(562,280)"/>
<path d="M0 0 C0.66 0.33 1.32 0.66 2 1 C2 1.66 2 2.32 2 3 C2.66 2.34 3.32 1.68 4 1 C4.66 1.66 5.32 2.32 6 3 C5.34 4.65 4.68 6.3 4 8 C5.98 8.66 7.96 9.32 10 10 C9.01 10.495 9.01 10.495 8 11 C8.95865509 13.33075929 8.95865509 13.33075929 12 15 C9.69 15.33 7.38 15.66 5 16 C5 15.34 5 14.68 5 14 C3.02 14.33 1.04 14.66 -1 15 C-0.649375 14.38125 -0.29875 13.7625 0.0625 13.125 C1.41103435 8.62988551 0.65959866 4.59045013 0 0 Z " fill="#260400" transform="translate(55,368)"/>
<path d="M0 0 C0.33 0 0.66 0 1 0 C1.02505615 0.79470703 1.0501123 1.58941406 1.07592773 2.40820312 C1.19394537 6.10555378 1.3155614 9.80277662 1.4375 13.5 C1.45856812 14.16150055 1.47963623 14.8230011 1.50134277 15.50454712 C1.78846024 24.4761475 2.22666435 33.39157074 3.109375 42.32421875 C3.07328125 43.20722656 3.0371875 44.09023438 3 45 C2.01 45.66 1.02 46.32 0 47 C0 31.49 0 15.98 0 0 Z " fill="#F1360E" transform="translate(266,399)"/>
<path d="M0 0 C-4.03968568 2.8155385 -7.17018807 3.3398448 -12 4 C-15.85145328 4.80006034 -19.67668043 5.7188511 -23.50390625 6.62695312 C-27.40998089 7.52607486 -30.95989386 8.25149255 -35 8 C-34.67 7.34 -34.34 6.68 -34 6 C-31.34790039 5.23803711 -31.34790039 5.23803711 -27.84765625 4.52734375 C-26.59662109 4.26759766 -25.34558594 4.00785156 -24.05664062 3.74023438 C-22.72535057 3.47220808 -21.39396915 3.2046352 -20.0625 2.9375 C-17.46922434 2.40885979 -14.87714788 1.87478386 -12.28515625 1.33984375 C-11.12894775 1.10644287 -9.97273926 0.87304199 -8.78149414 0.63256836 C-2.58716238 -0.77614871 -2.58716238 -0.77614871 0 0 Z " fill="#E4330E" transform="translate(480,274)"/>
<path d="M0 0 C1 3 1 3 0.10375977 4.80932617 C-0.36231689 5.46392822 -0.82839355 6.11853027 -1.30859375 6.79296875 C-1.80810547 7.50517578 -2.30761719 8.21738281 -2.82226562 8.95117188 C-3.35529297 9.68916016 -3.88832031 10.42714844 -4.4375 11.1875 C-4.96666016 11.93708984 -5.49582031 12.68667969 -6.04101562 13.45898438 C-7.35161785 15.31271906 -8.67143849 17.15911532 -10 19 C-11.06032743 15.81901772 -10.9708943 14.63466272 -10.3125 11.4375 C-10.09013672 10.25994141 -10.09013672 10.25994141 -9.86328125 9.05859375 C-9 7 -9 7 -7.10546875 5.72265625 C-5 5 -5 5 -2 5 C-1.34 3.35 -0.68 1.7 0 0 Z " fill="#DA300D" transform="translate(433,210)"/>
<path d="M0 0 C0.99 0 1.98 0 3 0 C2.67 1.32 2.34 2.64 2 4 C2.66 4.33 3.32 4.66 4 5 C4 4.01 4 3.02 4 2 C4.66 2 5.32 2 6 2 C5.79375 2.61875 5.5875 3.2375 5.375 3.875 C5.25125 4.57625 5.1275 5.2775 5 6 C5.66 6.66 6.32 7.32 7 8 C6.34 8.66 5.68 9.32 5 10 C4.01 9.34 3.02 8.68 2 8 C2.33 9.65 2.66 11.3 3 13 C2.01 13.495 2.01 13.495 1 14 C0.67 11.69 0.34 9.38 0 7 C-0.66 7 -1.32 7 -2 7 C-1.34 4.69 -0.68 2.38 0 0 Z " fill="#360701" transform="translate(309,614)"/>
<path d="M0 0 C0.33 0 0.66 0 1 0 C1.02722517 2.20826378 1.04649729 4.41662638 1.0625 6.625 C1.07410156 7.85476562 1.08570313 9.08453125 1.09765625 10.3515625 C1.00863924 13.67723791 0.63686087 16.74047588 0 20 C-0.33 20 -0.66 20 -1 20 C-1.33 15.71 -1.66 11.42 -2 7 C-3.65 8.98 -5.3 10.96 -7 13 C-7.66 12.67 -8.32 12.34 -9 12 C-7.52464063 9.99708788 -6.04497707 7.99763223 -4.5625 6 C-4.14162109 5.42765625 -3.72074219 4.8553125 -3.28710938 4.265625 C-2.21555864 2.82546081 -1.11033324 1.41048004 0 0 Z " fill="#EC370F" transform="translate(375,196)"/>
<path d="M0 0 C2.97 0.495 2.97 0.495 6 1 C6 2.65 6 4.3 6 6 C4.35 6 2.7 6 1 6 C1.33 7.65 1.66 9.3 2 11 C1.34 11 0.68 11 0 11 C-0.28875 10.030625 -0.5775 9.06125 -0.875 8.0625 C-1.64214682 4.89335797 -1.64214682 4.89335797 -4 4 C-4 3.34 -4 2.68 -4 2 C-2.68 2.33 -1.36 2.66 0 3 C0 2.01 0 1.02 0 0 Z " fill="#9E1E07" transform="translate(578,496)"/>
<path d="M0 0 C-2.50248865 1.66832577 -4.41149187 2.62381674 -7.1875 3.625 C-8.26064453 4.01558594 -8.26064453 4.01558594 -9.35546875 4.4140625 C-9.89816406 4.60742188 -10.44085938 4.80078125 -11 5 C-11 6.32 -11 7.64 -11 9 C-14.3 9 -17.6 9 -21 9 C-15.88883199 2.65510177 -8.12660084 -0.39749678 0 0 Z " fill="#D7300D" transform="translate(456,221)"/>
<path d="M0 0 C0.14715692 7.3905476 -0.29223008 14.64424835 -1 22 C-1.33 22 -1.66 22 -2 22 C-2 15.73 -2 9.46 -2 3 C-5.465 4.485 -5.465 4.485 -9 6 C-9.99 5.67 -10.98 5.34 -12 5 C-10.37750059 4.16180842 -8.75191503 3.3295884 -7.125 2.5 C-6.22007812 2.0359375 -5.31515625 1.571875 -4.3828125 1.09375 C-2 0 -2 0 0 0 Z " fill="#F0370F" transform="translate(222,383)"/>
<path d="M0 0 C2.22942748 0.14179038 4.45853628 0.28859698 6.6875 0.4375 C7.92886719 0.51871094 9.17023438 0.59992187 10.44921875 0.68359375 C13.38180337 0.94491317 16.13441617 1.34798379 19 2 C19 2.33 19 2.66 19 3 C4.94110787 5.39300292 4.94110787 5.39300292 -1 2 C-0.67 1.34 -0.34 0.68 0 0 Z " fill="#EB3911" transform="translate(301,647)"/>
<path d="M0 0 C1.5 1.375 1.5 1.375 3 3 C3 3.66 3 4.32 3 5 C4.32 4.34 5.64 3.68 7 3 C6.67 4.32 6.34 5.64 6 7 C5.34 6.67 4.68 6.34 4 6 C3.34 10.62 2.68 15.24 2 20 C1.67 20 1.34 20 1 20 C-0.05619003 15.71702469 -0.11702092 11.57014354 -0.0625 7.1875 C-0.05798828 6.49462891 -0.05347656 5.80175781 -0.04882812 5.08789062 C-0.03713156 3.39188932 -0.01919924 1.69593297 0 0 Z " fill="#E5310D" transform="translate(45,368)"/>
<path d="M0 0 C0.99580078 0.32484375 0.99580078 0.32484375 2.01171875 0.65625 C3.33623047 1.07390625 3.33623047 1.07390625 4.6875 1.5 C5.55761719 1.7784375 6.42773438 2.056875 7.32421875 2.34375 C9.99391677 2.99850805 12.26396684 3.11831495 15 3 C15.33 4.65 15.66 6.3 16 8 C14.22739369 7.54857225 12.4569632 7.08859477 10.6875 6.625 C9.20830078 6.24214844 9.20830078 6.24214844 7.69921875 5.8515625 C3.85696226 4.63938896 2.24163478 3.36245217 0 0 Z " fill="#D32E0C" transform="translate(243,632)"/>
<path d="M0 0 C0.33 0 0.66 0 1 0 C1.29211698 8.86088167 0.44796872 17.26047454 -1 26 C-1.33 26 -1.66 26 -2 26 C-2 19.07 -2 12.14 -2 5 C-1.34 5 -0.68 5 0 5 C0 3.35 0 1.7 0 0 Z " fill="#EC350E" transform="translate(216,451)"/>
<path d="M0 0 C3.0755751 1.53778755 5.2385888 2.85695863 7.875 4.9375 C11.09423775 7.40317086 14.28700721 9.32915324 18 11 C15 12 15 12 12.66015625 10.890625 C11.80292969 10.34921875 10.94570313 9.8078125 10.0625 9.25 C9.20785156 8.71890625 8.35320313 8.1878125 7.47265625 7.640625 C5.24953423 6.16556773 3.11301315 4.62765746 1 3 C1 4.98 1 6.96 1 9 C0.67 9 0.34 9 0 9 C0 6.03 0 3.06 0 0 Z " fill="#E8350E" transform="translate(505,445)"/>
<path d="M0 0 C3.96 0 7.92 0 12 0 C12 0.66 12 1.32 12 2 C7.92276266 3.95031692 4.68307578 4.21581971 0.1875 4.125 C-0.97394531 4.10695313 -2.13539063 4.08890625 -3.33203125 4.0703125 C-4.21246094 4.04710937 -5.09289062 4.02390625 -6 4 C-6 3.67 -6 3.34 -6 3 C-4.02 2.34 -2.04 1.68 0 1 C0 0.67 0 0.34 0 0 Z " fill="#C72809" transform="translate(401,644)"/>
<path d="M0 0 C1.65 0.33 3.3 0.66 5 1 C5 1.66 5 2.32 5 3 C5.66 3.33 6.32 3.66 7 4 C7 4.66 7 5.32 7 6 C5.35 6.66 3.7 7.32 2 8 C1.67 7.34 1.34 6.68 1 6 C0.01 6 -0.98 6 -2 6 C-2.33 5.01 -2.66 4.02 -3 3 C-2.01 2.67 -1.02 2.34 0 2 C0 1.34 0 0.68 0 0 Z " fill="#4D0D02" transform="translate(69,356)"/>
<path d="M0 0 C-1.16194152 6.46712188 -3.1248748 12.09622349 -6 18 C-7 16 -7 16 -6.00390625 12.7421875 C-5.53110016 11.4502948 -5.05028031 10.16131362 -4.5625 8.875 C-4.31951172 8.21628906 -4.07652344 7.55757813 -3.82617188 6.87890625 C-3.22421679 5.25008662 -2.61297588 3.62470425 -2 2 C-4.31 2 -6.62 2 -9 2 C-5.86501708 0.14223235 -3.62528568 -0.20140476 0 0 Z " fill="#ED360E" transform="translate(358,291)"/>
<path d="M0 0 C0.33 1.32 0.66 2.64 1 4 C-3.455 4.495 -3.455 4.495 -8 5 C-6.68 4.67 -5.36 4.34 -4 4 C-4 3.34 -4 2.68 -4 2 C-7.3 2.33 -10.6 2.66 -14 3 C-10.07503936 -0.92496064 -5.24412188 -0.08740203 0 0 Z " fill="#DF320D" transform="translate(417,642)"/>
<path d="M0 0 C-0.66 1.65 -1.32 3.3 -2 5 C-2.33 4.34 -2.66 3.68 -3 3 C-8.94 3 -14.88 3 -21 3 C-21 2.67 -21 2.34 -21 2 C-18.81347261 1.66034526 -16.62571975 1.32857523 -14.4375 1 C-13.21933594 0.814375 -12.00117188 0.62875 -10.74609375 0.4375 C-7.12372152 0.01444923 -3.64287954 -0.07501425 0 0 Z " fill="#F0380F" transform="translate(331,363)"/>
<path d="M0 0 C0.66 0.33 1.32 0.66 2 1 C1.67 1.66 1.34 2.32 1 3 C1.639375 3.103125 2.27875 3.20625 2.9375 3.3125 C3.618125 3.539375 4.29875 3.76625 5 4 C5.33 4.99 5.66 5.98 6 7 C5.34 7.66 4.68 8.32 4 9 C3.83312552 11.58354218 3.83312552 11.58354218 4 14 C3.34 14 2.68 14 2 14 C1.45627049 10.94152152 1 8.11227195 1 5 C0.05021103 2.84971696 0.05021103 2.84971696 -1 1 C-0.67 0.67 -0.34 0.34 0 0 Z " fill="#E12D0C" transform="translate(76,273)"/>
<path d="M0 0 C-0.33 4.95 -0.66 9.9 -1 15 C-1.33 15 -1.66 15 -2 15 C-2 11.04 -2 7.08 -2 3 C-2.94875 3.515625 -3.8975 4.03125 -4.875 4.5625 C-5.90625 5.036875 -6.9375 5.51125 -8 6 C-8.66 5.67 -9.32 5.34 -10 5 C-8.52227402 4.1641146 -7.04277811 3.33135744 -5.5625 2.5 C-4.32693359 1.80390625 -4.32693359 1.80390625 -3.06640625 1.09375 C-1 0 -1 0 0 0 Z " fill="#EF370E" transform="translate(229,201)"/>
<path d="M0 0 C0.66 0.99 1.32 1.98 2 3 C-3.38197425 4.22317597 -3.38197425 4.22317597 -6.25 3.1875 C-8 2 -8 2 -10 0 C-6.42030426 -1.23912545 -3.64409679 -0.95063395 0 0 Z " fill="#D52F0C" transform="translate(291,644)"/>
<path d="M0 0 C0.66 0 1.32 0 2 0 C1.67 1.32 1.34 2.64 1 4 C0.67 2.68 0.34 1.36 0 0 Z M-4 1 C-2.35 2.32 -0.7 3.64 1 5 C0.01 5.66 -0.98 6.32 -2 7 C-2.33 7.99 -2.66 8.98 -3 10 C-3.33 9.01 -3.66 8.02 -4 7 C-5.32 7.33 -6.64 7.66 -8 8 C-7.67 7.34 -7.34 6.68 -7 6 C-6.01 6 -5.02 6 -4 6 C-4 4.35 -4 2.7 -4 1 Z " fill="#9A1C06" transform="translate(334,612)"/>
<path d="M0 0 C0.33 0.66 0.66 1.32 1 2 C1.66 2 2.32 2 3 2 C3 1.34 3 0.68 3 0 C3.99 0.33 4.98 0.66 6 1 C5.67 1.99 5.34 2.98 5 4 C4.01 4 3.02 4 2 4 C1.67 5.65 1.34 7.3 1 9 C0.34 9 -0.32 9 -1 9 C-0.67 6.03 -0.34 3.06 0 0 Z " fill="#420A01" transform="translate(60,360)"/>
<path d="M0 0 C2.1519437 3.22791555 2.20086443 4.28400809 2 8 C0.02 8.99 0.02 8.99 -2 10 C-3.06351675 6.61608307 -3.21442982 5.4195366 -1.5625 2.1875 C-1.046875 1.465625 -0.53125 0.74375 0 0 Z " fill="#380802" transform="translate(82,277)"/>
<path d="M0 0 C1.65 0.33 3.3 0.66 5 1 C5 1.66 5 2.32 5 3 C4.01 3.33 3.02 3.66 2 4 C3.32 4.33 4.64 4.66 6 5 C5.01 5.495 5.01 5.495 4 6 C3.34 5.67 2.68 5.34 2 5 C2 5.99 2 6.98 2 8 C1.01 7.67 0.02 7.34 -1 7 C-0.34 5.68 0.32 4.36 1 3 C0.34 3 -0.32 3 -1 3 C-0.67 2.01 -0.34 1.02 0 0 Z " fill="#841706" transform="translate(311,611)"/>
<path d="M0 0 C2.31 0.66 4.62 1.32 7 2 C7 2.66 7 3.32 7 4 C6.01 4.33 5.02 4.66 4 5 C4.33 6.65 4.66 8.3 5 10 C4.34 10 3.68 10 3 10 C3 9.01 3 8.02 3 7 C2.34 7 1.68 7 1 7 C1.33 5.35 1.66 3.7 2 2 C1.34 2 0.68 2 0 2 C0 1.34 0 0.68 0 0 Z " fill="#8E1906" transform="translate(301,614)"/>
<path d="M0 0 C5.94 0 11.88 0 18 0 C18 0.33 18 0.66 18 1 C11.565 1.495 11.565 1.495 5 2 C5 2.99 5 3.98 5 5 C3.35 3.35 1.7 1.7 0 0 Z " fill="#AC2509" transform="translate(482,344)"/>
<path d="M0 0 C4 1.33333333 8 2.66666667 12 4 C11.67 4.99 11.34 5.98 11 7 C9.35063087 6.21572648 7.70558873 5.42234741 6.0625 4.625 C5.14597656 4.18414063 4.22945312 3.74328125 3.28515625 3.2890625 C1 2 1 2 0 0 Z " fill="#190300" transform="translate(206,612)"/>
<path d="M0 0 C0.66 0.33 1.32 0.66 2 1 C-1.3 3.97 -4.6 6.94 -8 10 C-8.33 9.34 -8.66 8.68 -9 8 C-6.14723863 5.06799526 -3.34920216 2.35684596 0 0 Z " fill="#160200" transform="translate(539,569)"/>
<path d="M0 0 C1.32 0 2.64 0 4 0 C4.99 2.97 5.98 5.94 7 9 C6.34 8.67 5.68 8.34 5 8 C5 7.34 5 6.68 5 6 C4.34 6 3.68 6 3 6 C3 5.34 3 4.68 3 4 C1.68 3.67 0.36 3.34 -1 3 C-0.67 2.01 -0.34 1.02 0 0 Z " fill="#A31E07" transform="translate(56,382)"/>
<path d="M0 0 C0.144375 0.61875 0.28875 1.2375 0.4375 1.875 C0.93152225 4.03258322 0.93152225 4.03258322 2 6 C-0.31 6.33 -2.62 6.66 -5 7 C-4.625 5.0625 -4.625 5.0625 -4 3 C-3.34 2.67 -2.68 2.34 -2 2 C-1.34 2.33 -0.68 2.66 0 3 C0 2.01 0 1.02 0 0 Z " fill="#B42309" transform="translate(593,488)"/>
<path d="M0 0 C0.96661363 3.12180401 0.98988909 5.52083795 0.5625 8.75 C0.46066406 9.54921875 0.35882813 10.3484375 0.25390625 11.171875 C0.12822266 12.07679688 0.12822266 12.07679688 0 13 C-0.33 13 -0.66 13 -1 13 C-1.33 10.03 -1.66 7.06 -2 4 C-3.98 4.99 -3.98 4.99 -6 6 C-6 5.34 -6 4.68 -6 4 C-4.03852126 2.61061923 -2.03833424 1.2739589 0 0 Z " fill="#E9360F" transform="translate(224,291)"/>
<path d="M0 0 C0.99 0.33 1.98 0.66 3 1 C2.01 1.495 2.01 1.495 1 2 C1.95865509 4.33075929 1.95865509 4.33075929 5 6 C2.69 6.33 0.38 6.66 -2 7 C-2.6875 5.1875 -2.6875 5.1875 -3 3 C-1.5625 1.25 -1.5625 1.25 0 0 Z " fill="#550D02" transform="translate(62,377)"/>
<path d="M0 0 C2.475 0.99 2.475 0.99 5 2 C5 6 5 6 4 9 C1.47740939 7.02579865 1.0070192 6.03254358 0.3125 2.8125 C0.209375 1.884375 0.10625 0.95625 0 0 Z " fill="#A21F08" transform="translate(62,354)"/>
<path d="M0 0 C3.63 0 7.26 0 11 0 C7.83759418 2.10827055 6.49342531 2.33817465 2.8125 2.625 C1.46091797 2.73714844 1.46091797 2.73714844 0.08203125 2.8515625 C-0.94857422 2.92503906 -0.94857422 2.92503906 -2 3 C-1.34 2.67 -0.68 2.34 0 2 C0 1.34 0 0.68 0 0 Z " fill="#E5330E" transform="translate(337,244)"/>
<path d="M0 0 C1 2 1 2 0.125 4.9375 C-0.24625 5.948125 -0.6175 6.95875 -1 8 C-1.33 8.99 -1.66 9.98 -2 11 C-2.66 11 -3.32 11 -4 11 C-4.33 11.66 -4.66 12.32 -5 13 C-4.48474397 7.71862571 -2.74522883 4.42778844 0 0 Z " fill="#EC350E" transform="translate(441,168)"/>
<path d="M0 0 C1.98 0.66 3.96 1.32 6 2 C6 2.66 6 3.32 6 4 C4.35 4.33 2.7 4.66 1 5 C0.34 3.68 -0.32 2.36 -1 1 C-0.67 0.67 -0.34 0.34 0 0 Z " fill="#9B1C06" transform="translate(304,608)"/>
<path d="M0 0 C0.66 0.33 1.32 0.66 2 1 C0.54462432 1.83848804 -0.91440373 2.67063934 -2.375 3.5 C-3.59316406 4.19609375 -3.59316406 4.19609375 -4.8359375 4.90625 C-7 6 -7 6 -9 6 C-8.67 4.35 -8.34 2.7 -8 1 C-7.34 1.66 -6.68 2.32 -6 3 C-5.05125 2.484375 -4.1025 1.96875 -3.125 1.4375 C-2.09375 0.963125 -1.0625 0.48875 0 0 Z " fill="#ED360D" transform="translate(195,350)"/>
<path d="M0 0 C2.29013653 3.4352048 2.17842973 4.985331 2 9 C-0.475 8.01 -0.475 8.01 -3 7 C-2.34 6.34 -1.68 5.68 -1 5 C-0.35232207 2.42938689 -0.35232207 2.42938689 0 0 Z " fill="#9D1E07" transform="translate(648,298)"/>
<path d="M0 0 C0.66 0.66 1.32 1.32 2 2 C2.66 1.34 3.32 0.68 4 0 C3.67 2.64 3.34 5.28 3 8 C2.34 8 1.68 8 1 8 C0.26919734 6.02253397 -0.39421747 4.01927511 -1 2 C-0.67 1.34 -0.34 0.68 0 0 Z " fill="#E42D0C" transform="translate(88,276)"/>
<path d="M0 0 C0.66 1.32 1.32 2.64 2 4 C-0.64 3.67 -3.28 3.34 -6 3 C-6 2.34 -6 1.68 -6 1 C-4 0 -4 0 0 0 Z " fill="#C62A0B" transform="translate(426,640)"/>
<path d="M0 0 C0.66 0 1.32 0 2 0 C1.67 0.99 1.34 1.98 1 3 C0.67 2.01 0.34 1.02 0 0 Z M-3 2 C-2.34 2 -1.68 2 -1 2 C-0.67 3.98 -0.34 5.96 0 8 C-1.32 7.34 -2.64 6.68 -4 6 C-3.34 5.67 -2.68 5.34 -2 5 C-2.33 4.01 -2.66 3.02 -3 2 Z " fill="#B92307" transform="translate(346,601)"/>
<path d="M0 0 C0.66 1.32 1.32 2.64 2 4 C2.99 3.34 3.98 2.68 5 2 C4.75 3.875 4.75 3.875 4 6 C1.9375 7.25 1.9375 7.25 0 8 C0 5.36 0 2.72 0 0 Z " fill="#DE300C" transform="translate(271,327)"/>
<path d="M0 0 C3.96 0 7.92 0 12 0 C8.83759418 2.10827055 7.49342531 2.33817465 3.8125 2.625 C2.46091797 2.73714844 2.46091797 2.73714844 1.08203125 2.8515625 C0.05142578 2.92503906 0.05142578 2.92503906 -1 3 C-0.67 2.01 -0.34 1.02 0 0 Z " fill="#EC370E" transform="translate(398,308)"/>
<path d="M0 0 C0.598125 0.20625 1.19625 0.4125 1.8125 0.625 C2.1425 1.945 2.4725 3.265 2.8125 4.625 C2.4825 3.965 2.1525 3.305 1.8125 2.625 C-0.1675 3.615 -0.1675 3.615 -2.1875 4.625 C-2.1875 3.965 -2.1875 3.305 -2.1875 2.625 C-3.1775 2.295 -4.1675 1.965 -5.1875 1.625 C-2.1875 -0.375 -2.1875 -0.375 0 0 Z " fill="#A01D07" transform="translate(565.1875,288.375)"/>
<path d="M0 0 C-0.99 0.33 -1.98 0.66 -3 1 C-3 1.66 -3 2.32 -3 3 C-5.31 3.33 -7.62 3.66 -10 4 C-7.39928297 0.98864344 -3.94054294 -1.97027147 0 0 Z " fill="#E5350E" transform="translate(229,70)"/>
<path d="M0 0 C0.33 0 0.66 0 1 0 C1 2.97 1 5.94 1 9 C0.01 8.01 -0.98 7.02 -2 6 C-1.7181953 3.67511119 -1.04553582 2.09107165 0 0 Z " fill="#DF300C" transform="translate(651,383)"/>
<path d="M0 0 C0.66 0.99 1.32 1.98 2 3 C1.25 5.625 1.25 5.625 0 8 C-0.99 8.495 -0.99 8.495 -2 9 C-1.125 1.125 -1.125 1.125 0 0 Z " fill="#D7320E" transform="translate(424,220)"/>
<path d="M0 0 C-0.33 2.31 -0.66 4.62 -1 7 C-1.66 7 -2.32 7 -3 7 C-3.33 5.02 -3.66 3.04 -4 1 C-2 0 -2 0 0 0 Z " fill="#2B0400" transform="translate(569,524)"/>
<path d="M0 0 C0.33 0.99 0.66 1.98 1 3 C3.01508358 3.73323796 3.01508358 3.73323796 5 4 C3 6 3 6 0.375 6.125 C-0.40875 6.08375 -1.1925 6.0425 -2 6 C-1.49396008 3.83125748 -1.00016187 2.00032373 0 0 Z " fill="#B92409" transform="translate(554,518)"/>
<path d="M0 0 C0.33 0 0.66 0 1 0 C1.25 7.625 1.25 7.625 -1 11 C-2.23076923 4.6 -2.23076923 4.6 -1.0625 1.5625 C-0.711875 1.046875 -0.36125 0.53125 0 0 Z " fill="#EB350F" transform="translate(377,392)"/>
<path d="M0 0 C2.97 0.33 5.94 0.66 9 1 C9 2.32 9 3.64 9 5 C8.34 5 7.68 5 7 5 C7 4.34 7 3.68 7 3 C6.401875 2.87625 5.80375 2.7525 5.1875 2.625 C3 2 3 2 0 0 Z " fill="#1E0300" transform="translate(563,287)"/>
<path d="M0 0 C0.33 0 0.66 0 1 0 C1 2.31 1 4.62 1 7 C0.67 7 0.34 7 0 7 C0 4.69 0 2.38 0 0 Z " fill="#180E0A" transform="translate(7,362)"/>
<path d="M0 0 C1.32 0.66 2.64 1.32 4 2 C2.35 2 0.7 2 -1 2 C-0.67 1.34 -0.34 0.68 0 0 Z " fill="#0D0806" transform="translate(311,687)"/>
<path d="M0 0 C0.99 0.495 0.99 0.495 2 1 C1.67 1.99 1.34 2.98 1 4 C0.67 2.68 0.34 1.36 0 0 Z " fill="#150F0B" transform="translate(23,453)"/>
<path d="M0 0 C0.99 0.495 0.99 0.495 2 1 C1.01 2.485 1.01 2.485 0 4 C0 2.68 0 1.36 0 0 Z " fill="#130B09" transform="translate(22,242)"/>
<path d="M0 0 C0.66 0.66 1.32 1.32 2 2 C1.34 2.66 0.68 3.32 0 4 C0 2.68 0 1.36 0 0 Z " fill="#110E0B" transform="translate(121,90)"/>
<path d="M0 0 C1.32 0.33 2.64 0.66 4 1 C3.01 1.495 3.01 1.495 2 2 C1.34 1.34 0.68 0.68 0 0 Z " fill="#0F0906" transform="translate(481,34)"/>
<path d="M0 0 C1.65 0 3.3 0 5 0 C5 0.33 5 0.66 5 1 C3.35 1 1.7 1 0 1 C0 0.67 0 0.34 0 0 Z " fill="#140D09" transform="translate(302,10)"/>
<path d="M0 0 C0.99 0.33 1.98 0.66 3 1 C2.01 1 1.02 1 0 1 C0 0.67 0 0.34 0 0 Z " fill="#0F0A07" transform="translate(230,669)"/>
<path d="M0 0 C0.99 0.33 1.98 0.66 3 1 C2.01 1 1.02 1 0 1 C0 0.67 0 0.34 0 0 Z " fill="#0D0A09" transform="translate(570,608)"/>
<path d="M0 0 C1 4 1 4 1 4 Z " fill="#160E09" transform="translate(7,328)"/>
<path d="M0 0 C0.99 0.33 1.98 0.66 3 1 C2.01 1.33 1.02 1.66 0 2 C0 1.34 0 0.68 0 0 Z " fill="#0D0806" transform="translate(133,82)"/>
<path d="M0 0 C3 1 3 1 3 1 Z " fill="#0F0807" transform="translate(377,689)"/>
<path d="M0 0 C3 1 3 1 3 1 Z " fill="#0D0705" transform="translate(322,689)"/>
<path d="M0 0 C3 1 3 1 3 1 Z " fill="#100907" transform="translate(287,684)"/>
<path d="M0 0 C3 1 3 1 3 1 Z " fill="#0F0906" transform="translate(237,671)"/>
<path d="M0 0 C0.66 0.66 1.32 1.32 2 2 C1.34 2 0.68 2 0 2 C0 1.34 0 0.68 0 0 Z " fill="#0E0C0A" transform="translate(38,490)"/>
<path d="" fill="#19110E" transform="translate(0,0)"/>
<path d="M0 0 C3 1 3 1 3 1 Z " fill="#110D0B" transform="translate(37,194)"/>
<path d="M0 0 C3 1 3 1 3 1 Z " fill="#130F0D" transform="translate(117,90)"/>
<path d="M0 0 C0.99 0.495 0.99 0.495 2 1 C1.01 1.495 1.01 1.495 0 2 C0 1.34 0 0.68 0 0 Z " fill="#0E0A08" transform="translate(141,76)"/>
<path d="M0 0 C3 1 3 1 3 1 Z " fill="#100908" transform="translate(181,50)"/>
<path d="M0 0 C3 1 3 1 3 1 Z " fill="#110A08" transform="translate(197,42)"/>
<path d="M0 0 C2 1 2 1 2 1 Z " fill="#0D0907" transform="translate(316,688)"/>
<path d="M0 0 C2 1 2 1 2 1 Z " fill="#0F0A06" transform="translate(293,685)"/>
<path d="M0 0 C2 1 2 1 2 1 Z " fill="#0C0906" transform="translate(173,641)"/>
<path d="" fill="#0E0A09" transform="translate(0,0)"/>
<path d="" fill="#0F0C0A" transform="translate(0,0)"/>
<path d="" fill="#130E0B" transform="translate(0,0)"/>
<path d="" fill="#120C0C" transform="translate(0,0)"/>
<path d="" fill="#16100F" transform="translate(0,0)"/>
<path d="" fill="#150F0C" transform="translate(0,0)"/>
<path d="" fill="#140C0B" transform="translate(0,0)"/>
<path d="" fill="#150F0C" transform="translate(0,0)"/>
<path d="" fill="#190E0C" transform="translate(0,0)"/>
<path d="" fill="#160F0C" transform="translate(0,0)"/>
<path d="" fill="#17100C" transform="translate(0,0)"/>
<path d="" fill="#170E09" transform="translate(0,0)"/>
<path d="" fill="#180F0B" transform="translate(0,0)"/>
<path d="" fill="#160D0A" transform="translate(0,0)"/>
<path d="" fill="#1C110D" transform="translate(0,0)"/>
<path d="" fill="#1A110E" transform="translate(0,0)"/>
<path d="" fill="#150D0B" transform="translate(0,0)"/>
<path d="" fill="#130B09" transform="translate(0,0)"/>
<path d="" fill="#150C09" transform="translate(0,0)"/>
<path d="" fill="#100C0A" transform="translate(0,0)"/>
<path d="" fill="#100D0A" transform="translate(0,0)"/>
<path d="" fill="#0E0A09" transform="translate(0,0)"/>
<path d="" fill="#0D0B0A" transform="translate(0,0)"/>
<path d="M0 0 C2 1 2 1 2 1 Z " fill="#110F0C" transform="translate(117,92)"/>
<path d="M0 0 C2 1 2 1 2 1 Z " fill="#0C0907" transform="translate(528,58)"/>
<path d="" fill="#150E0A" transform="translate(0,0)"/>
<path d="M0 0 C2 1 2 1 2 1 Z " fill="#0D0906" transform="translate(499,42)"/>
<path d="M0 0 C2 1 2 1 2 1 Z " fill="#100B08" transform="translate(215,34)"/>
<path d="M0 0 C2 1 2 1 2 1 Z " fill="#140E09" transform="translate(228,29)"/>
<path d="M0 0 C2 1 2 1 2 1 Z " fill="#120D09" transform="translate(237,26)"/>
<path d="M0 0 C2 1 2 1 2 1 Z " fill="#120B08" transform="translate(392,10)"/>
<path d="" fill="#110B06" transform="translate(0,0)"/>
<path d="" fill="#0F0906" transform="translate(0,0)"/>
<path d="" fill="#110C08" transform="translate(0,0)"/>
<path d="" fill="#110A07" transform="translate(0,0)"/>
<path d="" fill="#120A07" transform="translate(0,0)"/>
<path d="" fill="#0F0907" transform="translate(0,0)"/>
<path d="" fill="#100807" transform="translate(0,0)"/>
<path d="" fill="#110B06" transform="translate(0,0)"/>
<path d="" fill="#100A08" transform="translate(0,0)"/>
<path d="" fill="#0E0706" transform="translate(0,0)"/>
<path d="" fill="#110B08" transform="translate(0,0)"/>
<path d="" fill="#0F0907" transform="translate(0,0)"/>
<path d="" fill="#100909" transform="translate(0,0)"/>
<path d="" fill="#100907" transform="translate(0,0)"/>
<path d="" fill="#110908" transform="translate(0,0)"/>
<path d="" fill="#110B08" transform="translate(0,0)"/>
<path d="" fill="#110C09" transform="translate(0,0)"/>
<path d="" fill="#100807" transform="translate(0,0)"/>
<path d="" fill="#0D0906" transform="translate(0,0)"/>
<path d="" fill="#0E0908" transform="translate(0,0)"/>
<path d="" fill="#110A06" transform="translate(0,0)"/>
<path d="" fill="#100A08" transform="translate(0,0)"/>
<path d="" fill="#110C0A" transform="translate(0,0)"/>
<path d="" fill="#0F0A08" transform="translate(0,0)"/>
<path d="" fill="#0E0A07" transform="translate(0,0)"/>
<path d="" fill="#100908" transform="translate(0,0)"/>
<path d="" fill="#0E0909" transform="translate(0,0)"/>
<path d="" fill="#0F0809" transform="translate(0,0)"/>
<path d="" fill="#0C0A09" transform="translate(0,0)"/>
<path d="" fill="#100C07" transform="translate(0,0)"/>
<path d="" fill="#100C0A" transform="translate(0,0)"/>
<path d="" fill="#0B0905" transform="translate(0,0)"/>
<path d="" fill="#0E0A07" transform="translate(0,0)"/>
<path d="" fill="#0C0906" transform="translate(0,0)"/>
<path d="" fill="#0C0A08" transform="translate(0,0)"/>
<path d="" fill="#0F0B08" transform="translate(0,0)"/>
<path d="" fill="#120E0C" transform="translate(0,0)"/>
<path d="" fill="#100D09" transform="translate(0,0)"/>
<path d="" fill="#0E0807" transform="translate(0,0)"/>
<path d="" fill="#0B0906" transform="translate(0,0)"/>
<path d="" fill="#0D0A07" transform="translate(0,0)"/>
<path d="" fill="#0B0805" transform="translate(0,0)"/>
<path d="" fill="#0D0A07" transform="translate(0,0)"/>
<path d="" fill="#0A0806" transform="translate(0,0)"/>
<path d="" fill="#0D0B0A" transform="translate(0,0)"/>
<path d="" fill="#0C0807" transform="translate(0,0)"/>
<path d="" fill="#0E0A08" transform="translate(0,0)"/>
<path d="" fill="#0F0F0D" transform="translate(0,0)"/>
<path d="" fill="#0D0C0A" transform="translate(0,0)"/>
<path d="" fill="#0D0A09" transform="translate(0,0)"/>
<path d="" fill="#110D0C" transform="translate(0,0)"/>
<path d="" fill="#110E0B" transform="translate(0,0)"/>
<path d="" fill="#0C0A09" transform="translate(0,0)"/>
<path d="" fill="#0D0B09" transform="translate(0,0)"/>
<path d="" fill="#0C0809" transform="translate(0,0)"/>
<path d="" fill="#110D0C" transform="translate(0,0)"/>
<path d="" fill="#0E0B08" transform="translate(0,0)"/>
<path d="" fill="#0E0C0B" transform="translate(0,0)"/>
<path d="" fill="#0F0C09" transform="translate(0,0)"/>
<path d="" fill="#0E0E0A" transform="translate(0,0)"/>
<path d="" fill="#130F0C" transform="translate(0,0)"/>
<path d="" fill="#0D0B0A" transform="translate(0,0)"/>
<path d="" fill="#0F0D0B" transform="translate(0,0)"/>
<path d="" fill="#120F0B" transform="translate(0,0)"/>
<path d="" fill="#0B0A0A" transform="translate(0,0)"/>
<path d="" fill="#100E0A" transform="translate(0,0)"/>
<path d="" fill="#0F0A0A" transform="translate(0,0)"/>
<path d="" fill="#0C0A07" transform="translate(0,0)"/>
<path d="" fill="#0E0B09" transform="translate(0,0)"/>
<path d="" fill="#0D0C08" transform="translate(0,0)"/>
<path d="" fill="#0F0B08" transform="translate(0,0)"/>
<path d="" fill="#13100E" transform="translate(0,0)"/>
<path d="" fill="#0D0C0A" transform="translate(0,0)"/>
<path d="" fill="#120F0D" transform="translate(0,0)"/>
<path d="" fill="#0D0C0A" transform="translate(0,0)"/>
<path d="" fill="#0E0B0A" transform="translate(0,0)"/>
<path d="" fill="#0F0C09" transform="translate(0,0)"/>
<path d="" fill="#0E0A09" transform="translate(0,0)"/>
<path d="" fill="#0E0C0A" transform="translate(0,0)"/>
<path d="" fill="#0F0E0C" transform="translate(0,0)"/>
<path d="" fill="#130D0C" transform="translate(0,0)"/>
<path d="" fill="#0F0B0A" transform="translate(0,0)"/>
<path d="" fill="#130F0E" transform="translate(0,0)"/>
<path d="" fill="#12100C" transform="translate(0,0)"/>
<path d="" fill="#100C0A" transform="translate(0,0)"/>
<path d="" fill="#100D0C" transform="translate(0,0)"/>
<path d="" fill="#100C0A" transform="translate(0,0)"/>
<path d="" fill="#0E0B0C" transform="translate(0,0)"/>
<path d="" fill="#110E0A" transform="translate(0,0)"/>
<path d="" fill="#160F0D" transform="translate(0,0)"/>
<path d="" fill="#12100D" transform="translate(0,0)"/>
<path d="" fill="#180E0C" transform="translate(0,0)"/>
<path d="" fill="#160F0E" transform="translate(0,0)"/>
<path d="" fill="#170F0E" transform="translate(0,0)"/>
<path d="" fill="#130C08" transform="translate(0,0)"/>
<path d="" fill="#150E0B" transform="translate(0,0)"/>
<path d="" fill="#160D0B" transform="translate(0,0)"/>
<path d="" fill="#180E0D" transform="translate(0,0)"/>
<path d="" fill="#190F0D" transform="translate(0,0)"/>
<path d="" fill="#1A100B" transform="translate(0,0)"/>
<path d="" fill="#1A0F0B" transform="translate(0,0)"/>
<path d="" fill="#160E0C" transform="translate(0,0)"/>
<path d="" fill="#140C0A" transform="translate(0,0)"/>
<path d="" fill="#190F0D" transform="translate(0,0)"/>
<path d="" fill="#180E0D" transform="translate(0,0)"/>
<path d="" fill="#180D0B" transform="translate(0,0)"/>
<path d="" fill="#160D09" transform="translate(0,0)"/>
<path d="" fill="#19100C" transform="translate(0,0)"/>
<path d="" fill="#160D08" transform="translate(0,0)"/>
<path d="" fill="#150C0A" transform="translate(0,0)"/>
<path d="" fill="#18110E" transform="translate(0,0)"/>
<path d="" fill="#100C08" transform="translate(0,0)"/>
<path d="" fill="#170F0B" transform="translate(0,0)"/>
<path d="" fill="#150B09" transform="translate(0,0)"/>
<path d="" fill="#120A09" transform="translate(0,0)"/>
<path d="" fill="#18100C" transform="translate(0,0)"/>
<path d="" fill="#130C0A" transform="translate(0,0)"/>
<path d="" fill="#160F0C" transform="translate(0,0)"/>
<path d="" fill="#120D09" transform="translate(0,0)"/>
<path d="" fill="#150E0C" transform="translate(0,0)"/>
<path d="" fill="#130F0B" transform="translate(0,0)"/>
<path d="" fill="#15100C" transform="translate(0,0)"/>
<path d="" fill="#150F0E" transform="translate(0,0)"/>
<path d="" fill="#100C0B" transform="translate(0,0)"/>
<path d="" fill="#150F0E" transform="translate(0,0)"/>
<path d="" fill="#120D0B" transform="translate(0,0)"/>
<path d="" fill="#100D0B" transform="translate(0,0)"/>
<path d="" fill="#100B08" transform="translate(0,0)"/>
<path d="" fill="#0D080A" transform="translate(0,0)"/>
<path d="" fill="#0F0B0B" transform="translate(0,0)"/>
<path d="" fill="#0E0A08" transform="translate(0,0)"/>
<path d="" fill="#0F0E0B" transform="translate(0,0)"/>
<path d="" fill="#110D0A" transform="translate(0,0)"/>
<path d="" fill="#100A09" transform="translate(0,0)"/>
<path d="" fill="#100D0A" transform="translate(0,0)"/>
<path d="" fill="#100F0C" transform="translate(0,0)"/>
<path d="" fill="#0F0D09" transform="translate(0,0)"/>
<path d="" fill="#0D0908" transform="translate(0,0)"/>
<path d="" fill="#0F0B0B" transform="translate(0,0)"/>
<path d="" fill="#0F0B0A" transform="translate(0,0)"/>
<path d="" fill="#0C0C08" transform="translate(0,0)"/>
<path d="" fill="#0E0A0B" transform="translate(0,0)"/>
<path d="" fill="#0C0B0A" transform="translate(0,0)"/>
<path d="" fill="#0D0C08" transform="translate(0,0)"/>
<path d="" fill="#0C0B09" transform="translate(0,0)"/>
<path d="" fill="#0B0C09" transform="translate(0,0)"/>
<path d="" fill="#110D0A" transform="translate(0,0)"/>
<path d="" fill="#110E0A" transform="translate(0,0)"/>
<path d="" fill="#100C0C" transform="translate(0,0)"/>
<path d="" fill="#110E0C" transform="translate(0,0)"/>
<path d="" fill="#0D0A08" transform="translate(0,0)"/>
<path d="" fill="#100E0B" transform="translate(0,0)"/>
<path d="" fill="#0E0D0A" transform="translate(0,0)"/>
<path d="" fill="#0D0A08" transform="translate(0,0)"/>
<path d="" fill="#100D0B" transform="translate(0,0)"/>
<path d="" fill="#0D0A07" transform="translate(0,0)"/>
<path d="" fill="#110F0B" transform="translate(0,0)"/>
<path d="" fill="#0B0A08" transform="translate(0,0)"/>
<path d="" fill="#0A0A08" transform="translate(0,0)"/>
<path d="" fill="#100A08" transform="translate(0,0)"/>
<path d="" fill="#100C09" transform="translate(0,0)"/>
<path d="" fill="#110C09" transform="translate(0,0)"/>
<path d="" fill="#110C0B" transform="translate(0,0)"/>
<path d="" fill="#120D09" transform="translate(0,0)"/>
<path d="" fill="#110D09" transform="translate(0,0)"/>
<path d="" fill="#120D0A" transform="translate(0,0)"/>
<path d="" fill="#140E0B" transform="translate(0,0)"/>
<path d="" fill="#0F0C09" transform="translate(0,0)"/>
<path d="" fill="#110E0A" transform="translate(0,0)"/>
<path d="" fill="#170D0C" transform="translate(0,0)"/>
<path d="" fill="#100C0A" transform="translate(0,0)"/>
<path d="" fill="#110908" transform="translate(0,0)"/>
<path d="" fill="#170E0D" transform="translate(0,0)"/>
<path d="" fill="#130E0C" transform="translate(0,0)"/>
<path d="" fill="#120E0B" transform="translate(0,0)"/>
<path d="" fill="#180E0A" transform="translate(0,0)"/>
<path d="" fill="#1A120D" transform="translate(0,0)"/>
<path d="" fill="#140B09" transform="translate(0,0)"/>
<path d="" fill="#170D0C" transform="translate(0,0)"/>
<path d="" fill="#130B08" transform="translate(0,0)"/>
<path d="" fill="#140D0A" transform="translate(0,0)"/>
<path d="" fill="#0F0806" transform="translate(0,0)"/>
<path d="" fill="#140D09" transform="translate(0,0)"/>
<path d="" fill="#140F0A" transform="translate(0,0)"/>
<path d="" fill="#150D0B" transform="translate(0,0)"/>
<path d="" fill="#150C08" transform="translate(0,0)"/>
<path d="" fill="#130C0A" transform="translate(0,0)"/>
<path d="" fill="#140C08" transform="translate(0,0)"/>
<path d="" fill="#100807" transform="translate(0,0)"/>
<path d="" fill="#1A110D" transform="translate(0,0)"/>
</svg>
